<?xml version="1.0" encoding="UTF-8"?>
<svg id="Layer_1" xmlns="http://www.w3.org/2000/svg" baseProfile="tiny" version="1.2" viewBox="0 0 4000 1080">
  <!-- Generator: Adobe Illustrator 29.8.1, SVG Export Plug-In . SVG Version: 2.1.1 Build 2)  -->
  <g>
    <path d="M892.8,212.86c-19.51,4.34-37.24,9.82-57.57,16.09-5,1.54-8.91,2.38-11.72,2.52-7.83.39-12.83.74-14.99,1.03-11.74,1.57-27.75,6.54-36.16,8.8-5.94,1.59-12.13,2.11-18.58,1.56-9.69-.83-14.92-1.25-15.71-1.26-8.77-.13-16.59.61-23.46,2.21-7.24,1.69-13.69,3.26-19.35,4.73-10.29,2.67-23.68,5.04-34.51,7.84-2.23.57-4.6,1.47-7.11,2.69-.6.29-.78,1.06-.37,1.59.4.53,1.17,1.06,2.31,1.57" vector-effect="non-scaling-stroke" fill="none" stroke="#4ea9da" stroke-width="2"/>
    <path d="M474.49,296.2c-9.79,7.36-19.98,14-30.58,19.91-9.92,5.53-18.23,7.07-30.3,9.53-11.95,2.45-24.1,8.73-35.58,13.72-10.59,4.61-22.83,6.46-34.82,8.11-5.66.78-10.06,3.64-13.2,8.58" vector-effect="non-scaling-stroke" fill="none" stroke="#4ea9da" stroke-width="2"/>
    <path d="M474.46,418.02c-8.55-.63-17.07.26-25.56,2.67-7.01,1.98-18.12,5.04-33.35,9.17-15.85,4.3-28.17,10.24-43.34,13-6.41,1.17-13.93,2.76-22.54,4.76-7.02,1.63-13.56,2.18-19.61,1.64" vector-effect="non-scaling-stroke" fill="none" stroke="#489ed9" stroke-width="2"/>
    <path d="M950.14,305.85c-10.15,5.9-20.88,10.05-32.17,12.44-26.37,5.59-43.19,10.23-77.98,19.22-8.6,2.23-16.87,5.29-24.14,10.75" vector-effect="non-scaling-stroke" fill="none" stroke="#489ed9" stroke-width="2"/>
    <path d="M474.48,544.4c-19.87,6.5-39.7,15.13-58.36,22.11-9.92,3.71-20.71,8.46-31.79,12.88-5.63,2.25-13.79,4.83-24.49,7.75-8.27,2.25-17.98,4.96-29.13,8.13-.29.08-.48.34-.49.63l-.13,6.59" vector-effect="non-scaling-stroke" fill="none" stroke="#3f8cd7" stroke-width="2"/>
    <path d="M965.39,384.41c-7.91,6.62-16.83,11.04-26.76,13.26-22.77,5.1-45.76,9.05-68.67,13.47-17.81,3.43-34.1,8.29-48.85,14.58" vector-effect="non-scaling-stroke" fill="none" stroke="#4292d8" stroke-width="2"/>
    <path d="M474.44,610.16l-.41-5.86c-.02-.25-.28-.4-.5-.28-15.29,8.03-26.8,13.71-34.53,17.02-9.44,4.05-28.52,12.83-57.23,26.32-11.33,5.32-23.69,9.04-37.1,11.17-2.83.45-7.7.6-14.61.45" vector-effect="non-scaling-stroke" fill="none" stroke="#377ad6" stroke-width="2"/>
    <path d="M961.75,445.93c-9.79,4.02-19.01,6.63-27.66,7.83-11.82,1.65-28.14,3.7-41.09,6.83-30.62,7.38-60.62,16.45-92.46,16.4" vector-effect="non-scaling-stroke" fill="none" stroke="#3c85d7" stroke-width="2"/>
    <path d="M474.45,707.41l-.3-6.32c0-.25-.25-.42-.49-.36-7.03,1.81-13.12,3.76-18.27,5.83-11.49,4.64-23.72,9.28-36.69,13.92-14.87,5.33-30.02,11.35-42.17,16.45-11.29,4.73-22.74,7.7-34.35,8.9-4.02.41-8.06.8-12.13,1.16" vector-effect="non-scaling-stroke" fill="none" stroke="#346cd4" stroke-width="2"/>
    <path d="M935.41,522.92c-31.55,3.05-57.6,7.92-86.63,13.06-21.44,3.78-43.42,5.33-64.65,9-23.27,4.01-45.99,8.41-67.88,14.7-13.61,3.9-22.41,6.57-36.26,9.97-11.19,2.75-21.2,5.24-30.03,7.48-14.02,3.55-30.02,9.37-48,17.48" vector-effect="non-scaling-stroke" fill="none" stroke="#377ad6" stroke-width="2"/>
    <path d="M861.54,605c-11.69-1.25-24.79-1.24-39.32.02-19.55,1.69-33.58,2.98-42.08,3.87-10.2,1.06-24.52,3.22-42.95,6.48-12.81,2.26-23.79,5.4-35.7,9.68-3.93,1.41-9.49,3.24-16.68,5.51-16.05,5.05-32.16,10.07-48.34,15.06" vector-effect="non-scaling-stroke" fill="none" stroke="#346cd4" stroke-width="2"/>
    <path d="M840.61,690.23c-13.05,5.89-26.25,11.26-39.61,16.1-15.35,5.57-29.39,13.42-43.93,20.47-11.11,5.39-22.61,9.56-34.5,12.51-4.35,1.08-10.95,2.56-19.82,4.43" vector-effect="non-scaling-stroke" fill="none" stroke="#3c57d1" stroke-width="2"/>
    <path d="M880.58,748.08c-14.71,8.17-27,14.5-36.88,19-10.65,4.85-21.31,9.7-31.97,14.54-10.4,4.73-17.17,7.96-20.3,9.69-13.79,7.64-27.74,14.96-41.85,21.96" vector-effect="non-scaling-stroke" fill="none" stroke="#5145cd" stroke-width="2"/>
    <path d="M927.54,816.04c-12.4,9.92-23.83,17.62-34.28,23.11-16.63,8.73-33.91,17.58-49.46,26.92-13.75,8.25-27.36,16.86-40.85,25.81" vector-effect="non-scaling-stroke" fill="none" stroke="#6e38c8" stroke-width="2"/>
  </g>
  <path d="M2565.04,167.09c-12.39,11.11-26.14,20.11-41.23,26.98-12.32,5.61-26.05,10.01-38.95,15.73-18.6,8.25-28.85,12.78-30.74,13.59-15.47,6.68-30.08,10.06-45.44,14.49-22.39,6.45-43.44,20.51-64.87,30.05-3.17,1.41-6.36,2.87-9.55,4.36l-19.48,5.39c-8.32,1.57-15.09,3.27-20.32,5.09-11.27,3.93-23.73,11.44-35.53,14.63-7.23,1.95-15.74,3.97-25.53,6.06-3.42.73-12.57,3.43-27.44,8.1-9.94,3.13-22.25,7.85-30.14,10.59-7.96,2.76-19.86,5.73-27.96,9.12-2.77,1.15-7.52,3.63-14.23,7.44-11.16,6.31-21.62,8.04-34.49,10.02-14.7,2.27-47.14,5.81-70.07,12.25,1.77-4.54,3.67-9.02,5.71-13.45,21.46-46.53,50.82-87.36,88.07-122.49,7-6.6,16.9-14.86,29.71-24.77,21.18-16.4,44.49-30.09,69.92-41.07,32.16-13.89,65.67-23.2,100.52-27.95,24.49-3.34,48.32-4.85,71.49-4.53,59.92.83,116.77,14.28,170.55,40.37Z" fill="#50aeda"/>
  <path d="M892.8,212.86c-19.51,4.34-37.24,9.82-57.57,16.09-5,1.54-8.91,2.38-11.72,2.52-7.83.39-12.83.74-14.99,1.03-11.74,1.57-27.75,6.54-36.16,8.8-5.94,1.59-12.13,2.11-18.58,1.56-9.69-.83-14.92-1.25-15.71-1.26-8.77-.13-16.59.61-23.46,2.21-7.24,1.69-13.69,3.26-19.35,4.73-10.29,2.67-23.68,5.04-34.51,7.84-2.23.57-4.6,1.47-7.11,2.69-.6.29-.78,1.06-.37,1.59.4.53,1.17,1.06,2.31,1.57l-180.36-.1c-.36,0-.65.29-.65.65l-.08,33.42c-9.79,7.36-19.98,14-30.58,19.91-9.92,5.53-18.23,7.07-30.3,9.53-11.95,2.45-24.1,8.73-35.58,13.72-10.59,4.61-22.83,6.46-34.82,8.11-5.66.78-10.06,3.64-13.2,8.58l.03-227.1c0-.17.13-.3.3-.3,86.65.03,177.78.02,273.41-.04,34.59-.02,58.76.07,72.51.26,6.13.08,11.36.32,15.7.72,7.69.69,14,1,20.9,1.81,21.65,2.53,43.16,6.75,64.53,12.68,44.75,12.39,83.22,35.32,115.41,68.78Z" fill="#50aeda"/>
  <path d="M2565.04,167.09c33.48,16.36,63.5,37.62,90.05,63.78,9.92,9.77,18.98,19.41,27.19,28.94.2.24.18.59-.06.79l-109.47,91.89c-.25.21-.63.2-.86-.04-6.86-7.11-13.34-13.51-19.45-19.19-40.55-37.75-88.12-59.5-142.7-65.27-19.02-2.01-38.42-1.63-56.96,1.02-4.55.65-10.72,1.74-18.52,3.28,3.19-1.49,6.38-2.95,9.55-4.36,21.43-9.54,42.48-23.6,64.87-30.05,15.36-4.43,29.97-7.81,45.44-14.49,1.89-.81,12.14-5.34,30.74-13.59,12.9-5.72,26.63-10.12,38.95-15.73,15.09-6.87,28.84-15.87,41.23-26.98Z" fill="#4ba4d9"/>
  <path d="M892.8,212.86c25.61,26.96,44.73,57.96,57.34,92.99-10.15,5.9-20.88,10.05-32.17,12.44-26.37,5.59-43.19,10.23-77.98,19.22-8.6,2.23-16.87,5.29-24.14,10.75-16.7-48.54-59.41-78.12-109.38-84.16-16.78-2.03-33.82-1.94-50.89-1.87-1.14-.51-1.91-1.04-2.31-1.57-.41-.53-.23-1.3.37-1.59,2.51-1.22,4.88-2.12,7.11-2.69,10.83-2.8,24.22-5.17,34.51-7.84,5.66-1.47,12.11-3.04,19.35-4.73,6.87-1.6,14.69-2.34,23.46-2.21.79.01,6.02.43,15.71,1.26,6.45.55,12.64.03,18.58-1.56,8.41-2.26,24.42-7.23,36.16-8.8,2.16-.29,7.16-.64,14.99-1.03,2.81-.14,6.72-.98,11.72-2.52,20.33-6.27,38.06-11.75,57.57-16.09Z" fill="#4ba4d9"/>
  <path d="M2314.78,277.68c-37.89,11.89-70.39,32.4-97.49,61.55-11.63,12.52-21.66,25.92-30.07,40.19-9.28,15.75-16.72,32.24-22.31,49.47-19.42,7.65-38.79,15.12-58.12,22.4-6.52,2.45-13.82,4.65-20.58,6.33-13.49,3.35-27.17,7.46-41.06,12.33-6.57,2.3-14.69,4.54-19.83,5.41-10.01,1.69-15.68,2.76-17,3.21-2.47.84-5.01,1.73-7.6,2.67,2.92-41.63,12.37-81.71,28.35-120.26,22.93-6.44,55.37-9.98,70.07-12.25,12.87-1.98,23.33-3.71,34.49-10.02,6.71-3.81,11.46-6.29,14.23-7.44,8.1-3.39,20-6.36,27.96-9.12,7.89-2.74,20.2-7.46,30.14-10.59,14.87-4.67,24.02-7.37,27.44-8.1,9.79-2.09,18.3-4.11,25.53-6.06,11.8-3.19,24.26-10.7,35.53-14.63,5.23-1.82,12-3.52,20.32-5.09Z" fill="#4ba4d9"/>
  <path d="M474.49,296.2l-.03,121.82c-8.55-.63-17.07.26-25.56,2.67-7.01,1.98-18.12,5.04-33.35,9.17-15.85,4.3-28.17,10.24-43.34,13-6.41,1.17-13.93,2.76-22.54,4.76-7.02,1.63-13.56,2.18-19.61,1.64l-.05-93.21c3.14-4.94,7.54-7.8,13.2-8.58,11.99-1.65,24.23-3.5,34.82-8.11,11.48-4.99,23.63-11.27,35.58-13.72,12.07-2.46,20.38-4,30.3-9.53,10.6-5.91,20.79-12.55,30.58-19.91Z" fill="#4ba4d9"/>
  <path d="M965.39,384.41c-7.91,6.62-16.83,11.04-26.76,13.26-22.77,5.1-45.76,9.05-68.67,13.47-17.81,3.43-34.1,8.29-48.85,14.58,4.19-26.09,2.79-52.49-5.26-77.46,7.27-5.46,15.54-8.52,24.14-10.75,34.79-8.99,51.61-13.63,77.98-19.22,11.29-2.39,22.02-6.54,32.17-12.44,8.98,25.49,14.06,51.68,15.25,78.56Z" fill="#4598d8"/>
  <path d="M965.39,384.41c1.03,20.75-.18,41.25-3.64,61.52-9.79,4.02-19.01,6.63-27.66,7.83-11.82,1.65-28.14,3.7-41.09,6.83-30.62,7.38-60.62,16.45-92.46,16.4,10.36-15.62,17.22-32.71,20.57-51.27,14.75-6.29,31.04-11.15,48.85-14.58,22.91-4.42,45.9-8.37,68.67-13.47,9.93-2.22,18.85-6.64,26.76-13.26Z" fill="#3e8bd8"/>
  <path d="M474.46,418.02l.02,126.38c-19.87,6.5-39.7,15.13-58.36,22.11-9.92,3.71-20.71,8.46-31.79,12.88-5.63,2.25-13.79,4.83-24.49,7.75-8.27,2.25-17.98,4.96-29.13,8.13-.29.08-.48.34-.49.63l-.13,6.59-.03-153.23c6.05.54,12.59-.01,19.61-1.64,8.61-2,16.13-3.59,22.54-4.76,15.17-2.76,27.49-8.7,43.34-13,15.23-4.13,26.34-7.19,33.35-9.17,8.49-2.41,17.01-3.3,25.56-2.67Z" fill="#4598d8"/>
  <path d="M2164.91,428.89c-8.16,25.09-11.79,51.07-12.64,77.28-14.12,6.1-28.27,12.03-42.78,16.97-16.66,5.66-25.04,8.61-38.97,14.05-16.03,6.25-30.11,13.02-46.4,19.6-7.31,2.95-14.58,6.02-21.81,9.2-1.06-10.14-1.68-17.07-1.85-20.79-.99-21.33-.91-42.65.26-63.96,2.59-.94,5.13-1.83,7.6-2.67,1.32-.45,6.99-1.52,17-3.21,5.14-.87,13.26-3.11,19.83-5.41,13.89-4.87,27.57-8.98,41.06-12.33,6.76-1.68,14.06-3.88,20.58-6.33,19.33-7.28,38.7-14.75,58.12-22.4Z" fill="#4598d8"/>
  <path d="M961.75,445.93c-4.37,27.37-13.15,53.04-26.34,76.99-31.55,3.05-57.6,7.92-86.63,13.06-21.44,3.78-43.42,5.33-64.65,9-23.27,4.01-45.99,8.41-67.88,14.7-13.61,3.9-22.41,6.57-36.26,9.97-11.19,2.75-21.2,5.24-30.03,7.48-14.02,3.55-30.02,9.37-48,17.48l-45.88-67.63c-.24-.36.02-.84.45-.84,21.36-.06,68.02-.07,139.97-.04,19.64.01,39.01-2.81,56.76-10.5,19.13-8.29,34.89-21.16,47.28-38.61,31.84.05,61.84-9.02,92.46-16.4,12.95-3.13,29.27-5.18,41.09-6.83,8.65-1.2,17.87-3.81,27.66-7.83Z" fill="#397fd6"/>
  <path d="M2525.29,474.68c-21.87,11.39-43.96,22.94-66.27,34.63-21.56,11.3-41.53,22.12-59.9,32.46-7.98,4.49-15.78,8.4-23.39,11.73v-78.18c.01-.33.27-.59.59-.59l148.97-.05Z" fill="#397fd6"/>
  <path d="M2625.46,474.75c-.71.24-1.49.34-2.36.31-.32,0-.63.12-.85.36-5.14,5.66-11.32,10.48-18.53,14.47-26.7,14.76-51.17,28.94-76.28,47.63-11.29,8.4-24.05,17.51-38.28,27.32-10.82,7.46-21.39,15.69-30.9,23.82-6.82,5.83-14.55,12.32-17.36,21.06-.08.24.1.49.35.49l16.04.17-80.67.02c-.5,0-.91-.41-.91-.91l.02-55.99c7.61-3.33,15.41-7.24,23.39-11.73,18.37-10.34,38.34-21.16,59.9-32.46,22.31-11.69,44.4-23.24,66.27-34.63l100.17.07Z" fill="#3574d5"/>
  <path d="M2723.31,482.01c-28.25,10.56-50.22,24.41-77.96,41.12-15.59,9.39-27.33,16.89-35.22,22.48-12.27,8.71-24.51,18.01-36.71,27.92-12.33,10.02-22.78,22.04-29.82,36.17-.1.2.04.45.27.45l15.92.22h-102.5s-16.04-.16-16.04-.16c-.25,0-.43-.25-.35-.49,2.81-8.74,10.54-15.23,17.36-21.06,9.51-8.13,20.08-16.36,30.9-23.82,14.23-9.81,26.99-18.92,38.28-27.32,25.11-18.69,49.58-32.87,76.28-47.63,7.21-3.99,13.39-8.81,18.53-14.47.22-.24.53-.37.85-.36.87.03,1.65-.07,2.36-.31l97.32.03c.28,0,.5.22.5.49l.03,6.74Z" fill="#3263d3"/>
  <path d="M2723.31,482.01v60.86c-13.69,5.75-28.02,13.54-42.99,23.38-31.3,20.58-53.08,35.14-65.35,43.67-10.33,7.19-22.67,14.1-37.02,20.73l4.07-19.79c.06-.26-.15-.51-.42-.51l-21.81.02-15.92-.22c-.23,0-.37-.25-.27-.45,7.04-14.13,17.49-26.15,29.82-36.17,12.2-9.91,24.44-19.21,36.71-27.92,7.89-5.59,19.63-13.09,35.22-22.48,27.74-16.71,49.71-30.56,77.96-41.12Z" fill="#3a58d0"/>
  <path d="M2152.27,506.17c-.37,22.75,1.88,45.08,6.76,67.01-11.3,5.37-22.5,10.86-33.59,16.47-6.75,3.4-13.26,6.25-19.83,8.22-11.04,3.3-18.36,5.61-21.97,6.93-7.67,2.81-16.07,6.66-25.2,11.55-13.76,7.37-27.67,14.63-41.72,21.78-6.97-23.57-11.7-47.72-14.41-72.14,7.23-3.18,14.5-6.25,21.81-9.2,16.29-6.58,30.37-13.35,46.4-19.6,13.93-5.44,22.31-8.39,38.97-14.05,14.51-4.94,28.66-10.87,42.78-16.97Z" fill="#3e8bd8"/>
  <path d="M935.41,522.92c-18.75,32.31-43.77,59.93-73.87,82.08-11.69-1.25-24.79-1.24-39.32.02-19.55,1.69-33.58,2.98-42.08,3.87-10.2,1.06-24.52,3.22-42.95,6.48-12.81,2.26-23.79,5.4-35.7,9.68-3.93,1.41-9.49,3.24-16.68,5.51-16.05,5.05-32.16,10.07-48.34,15.06l-34.51-51.01c17.98-8.11,33.98-13.93,48-17.48,8.83-2.24,18.84-4.73,30.03-7.48,13.85-3.4,22.65-6.07,36.26-9.97,21.89-6.29,44.61-10.69,67.88-14.7,21.23-3.67,43.21-5.22,64.65-9,29.03-5.14,55.08-10.01,86.63-13.06Z" fill="#3574d5"/>
  <path d="M2723.3,542.87l-.1,27.16c-15.77,5.46-30.49,13.04-44.14,22.75-14.07,9.99-28.16,19.97-42.25,29.94-23.27,16.46-45.77,29.06-71.92,42.68,5.57-11.08,9.92-22.66,13.06-34.75,14.35-6.63,26.69-13.54,37.02-20.73,12.27-8.53,34.05-23.09,65.35-43.67,14.97-9.84,29.3-17.63,42.98-23.38Z" fill="#464bce"/>
  <path d="M474.48,544.4l-.04,65.76-.41-5.86c-.02-.25-.28-.4-.5-.28-15.29,8.03-26.8,13.71-34.53,17.02-9.44,4.05-28.52,12.83-57.23,26.32-11.33,5.32-23.69,9.04-37.1,11.17-2.83.45-7.7.6-14.61.45l.03-56.49.13-6.59c.01-.29.2-.55.49-.63,11.15-3.17,20.86-5.88,29.13-8.13,10.7-2.92,18.86-5.5,24.49-7.75,11.08-4.42,21.87-9.17,31.79-12.88,18.66-6.98,38.49-15.61,58.36-22.11Z" fill="#397fd6"/>
  <path d="M2723.2,570.03c.54,20.01-.31,39.92-2.54,59.73-9.85,6.38-17.31,11.74-22.37,16.08-16.37,14.06-32.88,27.54-49.54,40.44-18.89,14.63-30.66,24.83-48.64,39.59-15.06,12.36-37.56,29.52-56.28,43.22-11.8,8.63-30.78,22.51-56.93,41.64-31.1,22.73-62.89,44.22-94.27,64.43-16.37,10.55-30.95,22.79-43.72,36.74-32-3.01-63.15-9.86-93.44-20.56,7.05-9.54,15.33-17.81,24.86-24.81,20.53-15.09,41.62-29.35,63.26-42.8,8.77-5.45,27.03-16.12,54.78-32.02,12.59-7.21,28.37-17.57,47.33-31.06,24.9-6.9,47.37-17.94,67.4-33.11,21.75-16.47,39.02-37.19,51.79-62.14,26.15-13.62,48.65-26.22,71.92-42.68,14.09-9.97,28.18-19.95,42.25-29.94,13.65-9.71,28.37-17.29,44.14-22.75Z" fill="#5b3ecb"/>
  <path d="M2159.03,573.18c8.31,38.09,24.12,72.54,47.45,103.34-10.37,6.81-18.9,11.73-25.6,14.75-10.07,4.53-16.8,7.67-20.19,9.42-10.92,5.61-20.98,11.22-32.75,16.8-19.94,9.46-39.97,18.97-60.09,28.52-22.74-33.23-39.78-69.19-51.13-107.88,14.05-7.15,27.96-14.41,41.72-21.78,9.13-4.89,17.53-8.74,25.2-11.55,3.61-1.32,10.93-3.63,21.97-6.93,6.57-1.97,13.08-4.82,19.83-8.22,11.09-5.61,22.29-11.1,33.59-16.47Z" fill="#3574d5"/>
  <path d="M861.54,605c-17.61,13.11-36.42,24.24-56.44,33.38-.24.11-.32.41-.17.62l35.68,51.23c-13.05,5.89-26.25,11.26-39.61,16.1-15.35,5.57-29.39,13.42-43.93,20.47-11.11,5.39-22.61,9.56-34.5,12.51-4.35,1.08-10.95,2.56-19.82,4.43l-66.28-98.12c16.18-4.99,32.29-10.01,48.34-15.06,7.19-2.27,12.75-4.1,16.68-5.51,11.91-4.28,22.89-7.42,35.7-9.68,18.43-3.26,32.75-5.42,42.95-6.48,8.5-.89,22.53-2.18,42.08-3.87,14.53-1.26,27.63-1.27,39.32-.02Z" fill="#3263d3"/>
  <path d="M474.44,610.16v97.25s-.29-6.32-.29-6.32c0-.25-.25-.42-.49-.36-7.03,1.81-13.12,3.76-18.27,5.83-11.49,4.64-23.72,9.28-36.69,13.92-14.87,5.33-30.02,11.35-42.17,16.45-11.29,4.73-22.74,7.7-34.35,8.9-4.02.41-8.06.8-12.13,1.16v-88.01c6.92.15,11.79,0,14.62-.45,13.41-2.13,25.77-5.85,37.1-11.17,28.71-13.49,47.79-22.27,57.23-26.32,7.73-3.31,19.24-8.99,34.53-17.02.22-.12.48.03.5.28l.41,5.86Z" fill="#3574d5"/>
  <path d="M2720.66,629.76c-2.07,16.92-5.36,33.6-9.87,50.05-15.61,8.35-29.85,18.13-42.72,29.34-16.98,14.77-40.44,35.83-60.36,52.81-25.99,22.15-44.08,38.41-64.99,53.33-9.95,7.09-20.03,14.25-30.25,21.47-16.53,11.68-33.15,25-49.85,39.97-10.68,9.57-20.43,20.92-29.26,34.04-2.11.33-4.24.61-6.41.83-25.95,2.65-51.97,2.75-78.04.3,12.77-13.95,27.35-26.19,43.72-36.74,31.38-20.21,63.17-41.7,94.27-64.43,26.15-19.13,45.13-33.01,56.93-41.64,18.72-13.7,41.22-30.86,56.28-43.22,17.98-14.76,29.75-24.96,48.64-39.59,16.66-12.9,33.17-26.38,49.54-40.44,5.06-4.34,12.52-9.7,22.37-16.08Z" fill="#8032c5"/>
  <path d="M2206.48,676.52c15.03,19.14,32.37,35.85,52.04,50.13-12.46,8.31-23.32,13.04-36.94,19.39-8.41,3.91-14.05,6.73-16.92,8.44-6.29,3.75-23.01,13.51-50.14,29.28-11.55,6.71-22.3,15.21-32.24,25.48-20.32-19.19-38.46-40.27-54.43-63.23,20.12-9.55,40.15-19.06,60.09-28.52,11.77-5.58,21.83-11.19,32.75-16.8,3.39-1.75,10.12-4.89,20.19-9.42,6.7-3.02,15.23-7.94,25.6-14.75Z" fill="#3263d3"/>
  <path d="M2710.79,679.81c-15.75,55.37-45.11,105.2-87.37,144.55-36.88,34.33-79.95,58.46-128.2,73.28-19.35,5.94-39.2,10.4-61.86,13.13,8.83-13.12,18.58-24.47,29.26-34.04,16.7-14.97,33.32-28.29,49.85-39.97,10.22-7.22,20.3-14.38,30.25-21.47,20.91-14.92,39-31.18,64.99-53.33,19.92-16.98,43.38-38.04,60.36-52.81,12.87-11.21,27.11-20.99,42.72-29.34Z" fill="#982bc0"/>
  <path d="M880.58,748.08c-14.71,8.17-27,14.5-36.88,19-10.65,4.85-21.31,9.7-31.97,14.54-10.4,4.73-17.17,7.96-20.3,9.69-13.79,7.64-27.74,14.96-41.85,21.96l-46.83-69.53c8.87-1.87,15.47-3.35,19.82-4.43,11.89-2.95,23.39-7.12,34.5-12.51,14.54-7.05,28.58-14.9,43.93-20.47,13.36-4.84,26.56-10.21,39.61-16.1l39.97,57.85Z" fill="#464bce"/>
  <path d="M474.45,707.41v142.45c.01.68-.32,1.32-.87,1.72l-142.63,102.62c-.38.27-.91,0-.91-.47v-206.74c4.08-.36,8.12-.75,12.14-1.16,11.61-1.2,23.06-4.17,34.35-8.9,12.15-5.1,27.3-11.12,42.17-16.45,12.97-4.64,25.2-9.28,36.69-13.92,5.15-2.07,11.24-4.02,18.27-5.83.24-.06.48.11.49.36l.3,6.32Z" fill="#3263d3"/>
  <path d="M2311.07,754.64c-8.16,5.96-16.81,11.02-25.96,15.17-20.07,9.1-33.88,15.19-48.67,23.65-8.3,4.75-16.57,9.75-24.8,15.02-19.46,12.45-32.94,21.43-47.43,35.31-14.85-10.55-28.83-22.07-41.93-34.55,9.94-10.27,20.69-18.77,32.24-25.48,27.13-15.77,43.85-25.53,50.14-29.28,2.87-1.71,8.51-4.53,16.92-8.44,13.62-6.35,24.48-11.08,36.94-19.39,16.25,11.68,33.76,21.01,52.55,27.99Z" fill="#3a58d0"/>
  <path d="M880.58,748.08l46.96,67.96c-12.4,9.92-23.83,17.62-34.28,23.11-16.63,8.73-33.91,17.58-49.46,26.92-13.75,8.25-27.36,16.86-40.85,25.81l-53.37-78.61c14.11-7,28.06-14.32,41.85-21.96,3.13-1.73,9.9-4.96,20.3-9.69,10.66-4.84,21.32-9.69,31.97-14.54,9.88-4.5,22.17-10.83,36.88-19Z" fill="#5b3ecb"/>
  <path d="M2445.7,760.65c-18.96,13.49-34.74,23.85-47.33,31.06-27.75,15.9-46.01,26.57-54.78,32.02-21.64,13.45-42.73,27.71-63.26,42.8-9.53,7-17.81,15.27-24.86,24.81-32.65-11.69-63.07-27.54-91.26-47.55,14.49-13.88,27.97-22.86,47.43-35.31,8.23-5.27,16.5-10.27,24.8-15.02,14.79-8.46,28.6-14.55,48.67-23.65,9.15-4.15,17.8-9.21,25.96-15.17,13.97,4.92,28.28,8.6,42.94,11.05,30.71,5.12,61.66,2.94,91.69-5.04Z" fill="#464bce"/>
  <path d="M802.95,891.88c13.49-8.95,27.1-17.56,40.85-25.81,15.55-9.34,32.83-18.19,49.46-26.92,10.45-5.49,21.88-13.19,34.28-23.11l63.13,90.96c.23.33-.01.78-.41.78h-175.38c-.61,0-1.18-.3-1.52-.8l-10.41-15.1Z" fill="#8032c5"/>
  <text transform="translate(979.91 891.34)" fill="#0f1729" font-family="HelveticaNeue-Bold, &apos;Helvetica Neue&apos;" font-size="600" font-weight="700"><tspan x="0" y="0">evo</tspan></text>
  <text transform="translate(2773.37 891.88)" fill="#0f1729" font-family="HelveticaNeue-Bold, &apos;Helvetica Neue&apos;" font-size="600" font-weight="700"><tspan x="0" y="0">ate</tspan></text>
</svg>