<svg version="1.1" id="Layer_1" xmlns="http://www.w3.org/2000/svg" xmlns:xlink="http://www.w3.org/1999/xlink" x="0px" y="0px"
	 width="100%" viewBox="0 0 1024 1024" enable-background="new 0 0 1024 1024" xml:space="preserve">
<path fill="#F6F7F7" opacity="1.000000" stroke="none" 
	d="
M589.000000,1025.000000 
	C392.666656,1025.000000 196.833328,1025.000000 1.000000,1025.000000 
	C1.000000,683.666687 1.000000,342.333344 1.000000,1.000000 
	C342.333344,1.000000 683.666687,1.000000 1025.000000,1.000000 
	C1025.000000,342.333344 1025.000000,683.666687 1025.000000,1025.000000 
	C879.833313,1025.000000 734.666687,1025.000000 589.000000,1025.000000 
M275.590393,522.972351 
	C275.688202,522.656555 275.786041,522.340759 276.057983,521.564819 
	C276.057983,521.564819 276.196289,521.092651 276.812805,520.806152 
	C279.650909,517.020325 282.322632,513.094910 285.359192,509.475555 
	C293.534637,499.730927 303.745911,492.838135 315.419495,487.800415 
	C324.306824,483.965118 328.603271,475.979095 327.821838,466.473907 
	C327.239502,459.390533 324.352570,456.613861 317.234467,456.851898 
	C300.858734,457.399567 286.494110,463.700134 273.534821,473.208984 
	C250.585739,490.047668 237.727173,513.964966 227.775024,539.869019 
	C227.775024,539.869019 227.834381,539.845398 227.246704,540.234070 
	C226.376053,542.458679 225.505402,544.683289 224.183624,547.414368 
	C219.837540,556.210632 215.984207,565.293396 211.063248,573.755371 
	C184.376831,619.644897 145.503769,644.763428 91.230873,643.166016 
	C88.865685,643.096375 86.496658,643.157043 84.129417,643.157043 
	C84.031609,643.665100 83.933807,644.173218 83.835999,644.681274 
	C85.770409,645.792908 87.627945,647.074280 89.650879,647.990479 
	C116.126984,659.981323 143.288773,660.173706 170.508255,651.473572 
	C209.492355,639.013245 235.090195,611.735229 251.935699,575.429504 
	C259.839264,558.395691 267.260345,541.137939 275.157867,523.599548 
	C275.157867,523.599548 275.224884,523.143616 275.153931,523.077637 
	C275.153931,523.077637 275.111511,523.164795 275.590393,522.972351 
M176.006668,564.001099 
	C176.006668,564.001099 175.999680,563.978821 176.472382,563.625000 
	C176.752075,563.112122 177.031769,562.599304 177.713409,561.874390 
	C177.930145,561.637878 178.032562,561.359314 178.528091,560.687805 
	C179.025482,559.798950 179.522858,558.910156 180.000000,558.000000 
	C180.000000,558.000000 180.021469,558.018860 180.551620,557.602051 
	C186.057724,546.731628 191.563812,535.861145 197.412201,524.398132 
	C204.320007,510.295197 211.227814,496.192261 218.038452,482.027069 
	C218.038452,482.027069 218.095200,482.127594 218.611404,481.813202 
	C218.846954,481.264221 219.082520,480.715271 219.178680,480.131226 
	C219.178680,480.131226 219.202820,480.272919 219.699371,480.038086 
	C219.832550,479.703766 219.965729,479.369446 220.643250,478.654724 
	C225.304367,472.647827 229.684479,466.394836 234.684845,460.685059 
	C245.237244,448.635651 258.730377,440.672089 273.019653,434.095673 
	C273.019653,434.095673 273.121246,434.176819 273.888794,434.114044 
	C283.585052,431.369263 293.281342,428.624451 303.538055,425.956177 
	C304.061401,425.777863 304.584778,425.599579 305.871704,425.364288 
	C307.667084,424.660767 309.462494,423.957245 311.045563,422.986298 
	C311.045563,422.986298 311.269287,423.246460 311.807037,422.873627 
	C311.531342,421.935394 311.255615,420.997131 310.825317,419.560913 
	C310.540985,419.377258 310.256683,419.193604 309.695312,418.473724 
	C309.166595,418.195496 308.637878,417.917236 307.682922,417.121460 
	C303.383728,415.403381 299.213104,413.173523 294.763123,412.055603 
	C275.317291,407.170471 256.452454,409.838013 238.317902,417.742889 
	C217.015213,427.028748 199.798950,441.376312 186.498047,461.086700 
	C186.358093,461.388763 186.218140,461.690826 185.842346,462.147369 
	C185.842346,462.147369 185.839645,462.429260 185.266159,462.868195 
	C179.785904,473.041473 174.305649,483.214783 168.261429,493.899506 
	C162.827179,505.895599 157.392929,517.891724 151.444748,530.349792 
	C141.337006,549.861145 127.484894,566.017822 108.956200,577.931030 
	C108.956200,577.931030 108.894341,577.836731 108.237022,578.083740 
	C104.719872,580.018799 101.202721,581.953918 97.316490,583.892395 
	C97.316490,583.892395 96.988602,584.061890 96.446907,584.054016 
	C96.212471,584.308960 95.978043,584.563843 95.853676,584.794739 
	C95.853676,584.794739 95.779991,584.709473 95.087486,584.849182 
	C93.629784,585.533813 92.172081,586.218445 90.344040,586.879944 
	C90.344040,586.879944 89.999794,587.018494 89.364380,586.916260 
	C88.838158,587.209351 88.311935,587.502380 87.899719,587.807617 
	C87.899719,587.807617 87.858635,587.700562 87.144943,587.725891 
	C86.048714,588.051453 84.952477,588.377014 83.007187,588.767639 
	C71.005180,591.239502 58.955616,591.659058 46.809822,589.862549 
	C45.060352,589.603760 43.176346,590.254517 41.354614,590.484375 
	C42.262642,592.242676 42.737686,594.537048 44.146652,595.675232 
	C56.255173,605.456116 70.206703,611.207886 85.701553,611.942505 
	C124.454330,613.779602 153.153976,595.854431 175.530823,564.941345 
	C175.681839,564.629456 175.832855,564.317566 176.006668,564.001099 
M155.167511,391.668762 
	C133.707993,406.672394 118.217476,426.567261 107.670029,450.345612 
	C100.188545,467.211914 94.005241,484.704559 85.725044,501.153778 
	C74.437683,523.577087 58.855545,541.775208 31.931973,546.003540 
	C30.185883,546.277771 27.707241,548.267517 27.417269,549.807251 
	C27.060417,551.702148 28.039076,554.766724 29.524975,555.885864 
	C32.065193,557.799011 35.348091,559.279297 38.495190,559.741089 
	C55.362503,562.215820 71.347450,559.361267 86.061455,550.557739 
	C105.318565,539.036011 118.184868,521.788940 128.232910,502.271515 
	C136.150360,486.892578 143.076660,470.997192 151.170120,455.716217 
	C174.246063,412.147400 209.520355,386.125824 259.475677,381.726746 
	C265.969604,381.154877 272.444153,380.363220 279.945923,379.565033 
	C257.031067,365.347626 199.546082,359.998413 155.167511,391.668762 
M763.736938,460.229340 
	C736.351196,482.195221 736.056091,524.972717 753.153015,548.402283 
	C772.374573,574.743286 808.212402,579.003601 833.021912,567.389893 
	C859.909607,554.803284 873.675476,524.316956 866.409729,494.535950 
	C853.320862,440.886902 792.303345,436.490356 763.736938,460.229340 
M489.463287,548.992249 
	C484.449738,541.619080 479.436157,534.245911 474.926025,527.613159 
	C480.523071,523.667297 486.239044,520.681396 490.621063,516.346802 
	C502.350555,504.744354 504.265076,490.464722 499.193237,475.327423 
	C493.812195,459.267273 481.487488,450.869659 465.287201,449.182373 
	C452.092285,447.808105 438.694824,448.340240 425.385651,448.117126 
	C418.775055,448.006256 412.161041,448.097839 405.427307,448.097839 
	C405.427307,489.508514 405.427307,530.373779 405.427307,571.247681 
	C413.771851,571.247681 421.816925,571.247681 430.324036,571.247681 
	C430.324036,557.317444 430.324036,543.746948 430.324036,530.026062 
	C434.952942,530.026062 439.122040,530.214172 443.264801,529.964661 
	C446.397186,529.776001 448.317108,530.689636 450.134735,533.454895 
	C457.893616,545.258911 465.925293,556.885254 473.984497,568.488159 
	C474.905609,569.814331 476.597473,571.434631 477.976929,571.477722 
	C486.692413,571.750061 495.420563,571.615906 504.916046,571.615906 
	C499.586670,563.778992 494.750671,556.667603 489.463287,548.992249 
M970.221680,462.771515 
	C973.499573,458.084076 976.777466,453.396637 980.472900,448.112122 
	C971.314514,448.112122 963.176880,448.257721 955.049316,448.036469 
	C952.032959,447.954346 950.320007,448.900726 948.645508,451.441010 
	C940.731445,463.446808 932.567871,475.288086 924.266846,487.521606 
	C923.024170,485.825592 922.021118,484.532928 921.098450,483.185242 
	C913.773315,472.486176 906.498047,461.752625 899.102173,451.102905 
	C898.247803,449.872650 896.772278,448.266815 895.545044,448.231842 
	C886.835754,447.983795 878.116150,448.099792 868.500183,448.099792 
	C882.758606,468.656647 896.453308,488.400818 910.122192,508.107788 
	C895.210083,529.236206 880.456543,550.139893 865.314087,571.594666 
	C872.507141,571.594666 878.559143,571.077576 884.483521,571.726257 
	C891.793518,572.526733 896.235901,570.058533 900.203979,563.697937 
	C907.566467,551.896057 916.024780,540.777649 924.307678,528.974426 
	C933.376099,542.497986 942.110840,555.587708 950.952271,568.604980 
	C951.788452,569.836121 953.272949,571.435059 954.493835,571.467712 
	C963.549377,571.710022 972.614380,571.599060 982.301208,571.599060 
	C981.168213,569.817810 980.508911,568.704773 979.776733,567.641907 
	C966.952759,549.026245 954.168884,530.382446 941.235962,511.842743 
	C939.305603,509.075500 938.772217,507.167114 941.025024,504.082550 
	C950.829102,490.659210 960.287781,476.983612 970.221680,462.771515 
M577.499878,498.917908 
	C568.409912,498.917908 559.319946,498.917908 550.333008,498.917908 
	C550.333008,488.970093 550.333008,479.720215 550.333008,470.075836 
	C568.345337,470.075836 586.079895,470.075836 603.874634,470.075836 
	C603.874634,462.607300 603.874634,455.543488 603.874634,448.308411 
	C577.525269,448.308411 551.455872,448.308411 525.141052,448.308411 
	C525.141052,489.402466 525.141052,530.283813 525.141052,571.277832 
	C551.538025,571.277832 577.727783,571.277832 603.783081,571.277832 
	C603.783081,563.702209 603.783081,556.475098 603.783081,548.816528 
	C585.683838,548.816528 567.958252,548.816528 550.331238,548.816528 
	C550.331238,539.280518 550.331238,530.194946 550.331238,520.607361 
	C566.655640,520.607361 582.708923,520.607361 598.642517,520.607361 
	C598.642517,513.157227 598.642517,506.219543 598.642517,498.919464 
	C591.754028,498.919464 585.126892,498.919464 577.499878,498.917908 
M622.905151,465.727264 
	C635.325562,499.522308 647.799133,533.298035 660.087830,567.140869 
	C661.381104,570.702454 663.085632,571.885010 666.872131,571.691589 
	C674.018616,571.326477 681.205627,571.379028 688.358093,571.679138 
	C691.647400,571.817139 692.886292,570.547852 693.957825,567.666992 
	C705.930176,535.477966 718.036011,503.338654 730.108276,471.186829 
	C732.944397,463.633545 735.789856,456.083771 738.739441,448.244141 
	C729.493530,448.244141 720.872742,448.244141 712.092773,448.244141 
	C700.704529,479.897308 689.343872,511.473785 677.627930,544.037598 
	C676.427368,540.719727 675.634094,538.547241 674.854492,536.369873 
	C664.788147,508.256012 654.753479,480.130646 644.578003,452.056366 
	C644.021912,450.521973 642.340759,448.331543 641.105957,448.279480 
	C633.035095,447.939026 624.942932,448.104309 616.290100,448.104309 
	C618.565491,454.159424 620.601624,459.577911 622.905151,465.727264 
M314.405792,548.978149 
	C316.246246,540.018372 318.215912,531.082153 319.852661,522.085327 
	C320.380890,519.181702 320.033936,516.118896 320.087341,513.128906 
	C317.139099,514.622986 313.645447,515.536987 311.334869,517.709290 
	C299.947388,528.415466 292.768127,541.936462 286.945984,556.206970 
	C279.665802,574.051392 273.622833,592.388550 263.201599,608.877869 
	C244.982971,637.704895 221.296738,659.626038 188.037796,669.590820 
	C178.136108,672.557434 167.892258,674.382019 156.840164,676.954468 
	C159.435867,677.758057 161.240540,678.446167 163.104996,678.873230 
	C176.278763,681.891174 189.527084,681.722412 202.771317,679.481384 
	C241.403030,672.944641 269.764343,651.519043 289.947662,618.643188 
	C302.939178,597.481689 309.024597,573.772339 314.405792,548.978149 
z"/>
<path fill="#039EDE" opacity="1.000000" stroke="none" 
	d="
M155.455444,391.450989 
	C199.546082,359.998413 257.031067,365.347626 279.945923,379.565033 
	C272.444153,380.363220 265.969604,381.154877 259.475677,381.726746 
	C209.520355,386.125824 174.246063,412.147400 151.170120,455.716217 
	C143.076660,470.997192 136.150360,486.892578 128.232910,502.271515 
	C118.184868,521.788940 105.318565,539.036011 86.061455,550.557739 
	C71.347450,559.361267 55.362503,562.215820 38.495190,559.741089 
	C35.348091,559.279297 32.065193,557.799011 29.524975,555.885864 
	C28.039076,554.766724 27.060417,551.702148 27.417269,549.807251 
	C27.707241,548.267517 30.185883,546.277771 31.931973,546.003540 
	C58.855545,541.775208 74.437683,523.577087 85.725044,501.153778 
	C94.005241,484.704559 100.188545,467.211914 107.670029,450.345612 
	C118.217476,426.567261 133.707993,406.672394 155.455444,391.450989 
z"/>
<path fill="#020202" opacity="1.000000" stroke="none" 
	d="
M764.025024,460.019928 
	C792.303345,436.490356 853.320862,440.886902 866.409729,494.535950 
	C873.675476,524.316956 859.909607,554.803284 833.021912,567.389893 
	C808.212402,579.003601 772.374573,574.743286 753.153015,548.402283 
	C736.056091,524.972717 736.351196,482.195221 764.025024,460.019928 
M824.138977,545.763916 
	C840.072815,534.767883 844.929565,519.271362 841.905518,500.883270 
	C837.201050,472.276520 804.082947,459.046509 781.248657,476.823944 
	C768.507751,486.743347 765.413452,500.696381 766.886719,516.157349 
	C769.542480,544.026001 799.044373,559.684631 824.138977,545.763916 
z"/>
<path fill="#030303" opacity="1.000000" stroke="none" 
	d="
M489.688965,549.274231 
	C494.750671,556.667603 499.586670,563.778992 504.916046,571.615906 
	C495.420563,571.615906 486.692413,571.750061 477.976929,571.477722 
	C476.597473,571.434631 474.905609,569.814331 473.984497,568.488159 
	C465.925293,556.885254 457.893616,545.258911 450.134735,533.454895 
	C448.317108,530.689636 446.397186,529.776001 443.264801,529.964661 
	C439.122040,530.214172 434.952942,530.026062 430.324036,530.026062 
	C430.324036,543.746948 430.324036,557.317444 430.324036,571.247681 
	C421.816925,571.247681 413.771851,571.247681 405.427307,571.247681 
	C405.427307,530.373779 405.427307,489.508514 405.427307,448.097839 
	C412.161041,448.097839 418.775055,448.006256 425.385651,448.117126 
	C438.694824,448.340240 452.092285,447.808105 465.287201,449.182373 
	C481.487488,450.869659 493.812195,459.267273 499.193237,475.327423 
	C504.265076,490.464722 502.350555,504.744354 490.621063,516.346802 
	C486.239044,520.681396 480.523071,523.667297 474.926025,527.613159 
	C479.436157,534.245911 484.449738,541.619080 489.688965,549.274231 
M468.683044,504.365692 
	C475.385071,499.685730 476.951660,492.993561 475.703522,485.460907 
	C474.510590,478.261322 470.216248,472.563690 463.171661,471.569305 
	C452.317200,470.037109 441.226807,470.176514 430.411926,469.615906 
	C430.411926,483.254852 430.411926,495.633972 430.411926,508.135895 
	C437.906494,508.135895 445.083282,508.555420 452.183502,507.998596 
	C457.529449,507.579346 462.777252,505.908447 468.683044,504.365692 
z"/>
<path fill="#040404" opacity="1.000000" stroke="none" 
	d="
M970.046753,463.085571 
	C960.287781,476.983612 950.829102,490.659210 941.025024,504.082550 
	C938.772217,507.167114 939.305603,509.075500 941.235962,511.842743 
	C954.168884,530.382446 966.952759,549.026245 979.776733,567.641907 
	C980.508911,568.704773 981.168213,569.817810 982.301208,571.599060 
	C972.614380,571.599060 963.549377,571.710022 954.493835,571.467712 
	C953.272949,571.435059 951.788452,569.836121 950.952271,568.604980 
	C942.110840,555.587708 933.376099,542.497986 924.307678,528.974426 
	C916.024780,540.777649 907.566467,551.896057 900.203979,563.697937 
	C896.235901,570.058533 891.793518,572.526733 884.483521,571.726257 
	C878.559143,571.077576 872.507141,571.594666 865.314087,571.594666 
	C880.456543,550.139893 895.210083,529.236206 910.122192,508.107788 
	C896.453308,488.400818 882.758606,468.656647 868.500183,448.099792 
	C878.116150,448.099792 886.835754,447.983795 895.545044,448.231842 
	C896.772278,448.266815 898.247803,449.872650 899.102173,451.102905 
	C906.498047,461.752625 913.773315,472.486176 921.098450,483.185242 
	C922.021118,484.532928 923.024170,485.825592 924.266846,487.521606 
	C932.567871,475.288086 940.731445,463.446808 948.645508,451.441010 
	C950.320007,448.900726 952.032959,447.954346 955.049316,448.036469 
	C963.176880,448.257721 971.314514,448.112122 980.472900,448.112122 
	C976.777466,453.396637 973.499573,458.084076 970.046753,463.085571 
z"/>
<path fill="#030303" opacity="1.000000" stroke="none" 
	d="
M577.999817,498.918701 
	C585.126892,498.919464 591.754028,498.919464 598.642517,498.919464 
	C598.642517,506.219543 598.642517,513.157227 598.642517,520.607361 
	C582.708923,520.607361 566.655640,520.607361 550.331238,520.607361 
	C550.331238,530.194946 550.331238,539.280518 550.331238,548.816528 
	C567.958252,548.816528 585.683838,548.816528 603.783081,548.816528 
	C603.783081,556.475098 603.783081,563.702209 603.783081,571.277832 
	C577.727783,571.277832 551.538025,571.277832 525.141052,571.277832 
	C525.141052,530.283813 525.141052,489.402466 525.141052,448.308411 
	C551.455872,448.308411 577.525269,448.308411 603.874634,448.308411 
	C603.874634,455.543488 603.874634,462.607300 603.874634,470.075836 
	C586.079895,470.075836 568.345337,470.075836 550.333008,470.075836 
	C550.333008,479.720215 550.333008,488.970093 550.333008,498.917908 
	C559.319946,498.917908 568.409912,498.917908 577.999817,498.918701 
z"/>
<path fill="#A551C3" opacity="1.000000" stroke="none" 
	d="
M276.196289,521.092651 
	C276.196289,521.092651 276.057983,521.564819 275.771576,521.929443 
	C275.248383,522.536133 275.123840,522.826355 275.111511,523.164795 
	C275.111511,523.164795 275.153931,523.077637 274.998474,523.125183 
	C274.742126,523.244080 274.545563,523.359070 274.555145,523.380066 
	C274.650635,523.589539 274.780182,523.783386 274.900085,523.981689 
	C267.260345,541.137939 259.839264,558.395691 251.935699,575.429504 
	C235.090195,611.735229 209.492355,639.013245 170.508255,651.473572 
	C143.288773,660.173706 116.126984,659.981323 89.650879,647.990479 
	C87.627945,647.074280 85.770409,645.792908 83.835999,644.681274 
	C83.933807,644.173218 84.031609,643.665100 84.129417,643.157043 
	C86.496658,643.157043 88.865685,643.096375 91.230873,643.166016 
	C145.503769,644.763428 184.376831,619.644897 211.063248,573.755371 
	C215.984207,565.293396 219.837540,556.210632 224.757446,547.076538 
	C226.469009,545.905396 227.606766,545.072021 228.654892,544.304321 
	C228.351120,542.653564 228.092743,541.249451 227.834381,539.845398 
	C227.834381,539.845398 227.775024,539.869019 228.172379,539.904175 
	C231.514984,540.807129 234.635574,541.830688 235.709473,537.538696 
	C238.346481,526.999207 248.752625,525.658752 255.827484,520.380981 
	C256.020691,520.236877 256.499146,520.535828 256.781219,520.440613 
	C258.985870,519.696106 261.663391,519.447083 263.259125,518.007690 
	C265.923004,515.604797 268.176422,515.715942 270.832092,517.488953 
	C272.623566,518.685059 274.408447,519.891113 276.196289,521.092651 
z"/>
<path fill="#030303" opacity="1.000000" stroke="none" 
	d="
M622.771484,465.361847 
	C620.601624,459.577911 618.565491,454.159424 616.290100,448.104309 
	C624.942932,448.104309 633.035095,447.939026 641.105957,448.279480 
	C642.340759,448.331543 644.021912,450.521973 644.578003,452.056366 
	C654.753479,480.130646 664.788147,508.256012 674.854492,536.369873 
	C675.634094,538.547241 676.427368,540.719727 677.627930,544.037598 
	C689.343872,511.473785 700.704529,479.897308 712.092773,448.244141 
	C720.872742,448.244141 729.493530,448.244141 738.739441,448.244141 
	C735.789856,456.083771 732.944397,463.633545 730.108276,471.186829 
	C718.036011,503.338654 705.930176,535.477966 693.957825,567.666992 
	C692.886292,570.547852 691.647400,571.817139 688.358093,571.679138 
	C681.205627,571.379028 674.018616,571.326477 666.872131,571.691589 
	C663.085632,571.885010 661.381104,570.702454 660.087830,567.140869 
	C647.799133,533.298035 635.325562,499.522308 622.771484,465.361847 
z"/>
<path fill="#EE8538" opacity="1.000000" stroke="none" 
	d="
M314.303680,549.387939 
	C309.024597,573.772339 302.939178,597.481689 289.947662,618.643188 
	C269.764343,651.519043 241.403030,672.944641 202.771317,679.481384 
	C189.527084,681.722412 176.278763,681.891174 163.104996,678.873230 
	C161.240540,678.446167 159.435867,677.758057 156.840164,676.954468 
	C167.892258,674.382019 178.136108,672.557434 188.037796,669.590820 
	C221.296738,659.626038 244.982971,637.704895 263.201599,608.877869 
	C273.622833,592.388550 279.665802,574.051392 286.945984,556.206970 
	C292.768127,541.936462 299.947388,528.415466 311.334869,517.709290 
	C313.645447,515.536987 317.139099,514.622986 320.087341,513.128906 
	C320.033936,516.118896 320.380890,519.181702 319.852661,522.085327 
	C318.215912,531.082153 316.246246,540.018372 314.303680,549.387939 
z"/>
<path fill="#3A64C8" opacity="1.000000" stroke="none" 
	d="
M175.084290,565.231140 
	C153.153976,595.854431 124.454330,613.779602 85.701553,611.942505 
	C70.206703,611.207886 56.255173,605.456116 44.146652,595.675232 
	C42.737686,594.537048 42.262642,592.242676 41.354607,590.484375 
	C43.176346,590.254517 45.060352,589.603760 46.809822,589.862549 
	C58.955616,591.659058 71.005180,591.239502 83.620850,589.028809 
	C85.442551,588.760193 86.650597,588.230408 87.858635,587.700562 
	C87.858635,587.700562 87.899719,587.807617 88.160858,587.847290 
	C88.947922,587.597412 89.473854,587.307983 89.999794,587.018494 
	C89.999794,587.018494 90.344040,586.879944 90.953979,586.919250 
	C92.969276,586.208862 94.374634,585.459167 95.779999,584.709473 
	C95.779991,584.709473 95.853676,584.794739 96.056931,584.776367 
	C96.502991,584.526001 96.745804,584.293945 96.988602,584.061890 
	C96.988602,584.061890 97.316490,583.892395 97.919067,583.921875 
	C102.834023,583.363220 107.164848,582.806396 108.894341,577.836731 
	C108.894341,577.836731 108.956200,577.931030 109.317825,577.945557 
	C111.503548,577.426453 113.386246,577.037903 115.139969,576.329895 
	C119.254227,574.668945 123.272858,571.498413 127.391617,571.395447 
	C135.116623,571.202271 140.286407,566.666504 146.373611,563.317200 
	C155.586136,558.248230 164.906952,553.141663 176.114212,553.905090 
	C179.184723,554.114258 180.342194,555.096313 180.021469,558.018860 
	C180.021469,558.018860 180.000000,558.000000 179.663208,558.061218 
	C178.891159,559.094543 178.455902,560.066650 178.020660,561.038757 
	C178.032562,561.359314 177.930145,561.637878 177.218842,562.092712 
	C176.482742,562.866943 176.241211,563.422913 175.999680,563.978821 
	C175.999680,563.978821 176.006668,564.001099 175.774261,564.148376 
	C175.389343,564.607483 175.236816,564.919312 175.084290,565.231140 
z"/>
<path fill="#9C50C5" opacity="1.000000" stroke="none" 
	d="
M276.504547,520.949402 
	C274.408447,519.891113 272.623566,518.685059 270.832092,517.488953 
	C268.176422,515.715942 265.923004,515.604797 263.259125,518.007690 
	C261.663391,519.447083 258.985870,519.696106 256.781219,520.440613 
	C256.499146,520.535828 256.020691,520.236877 255.827484,520.380981 
	C248.752625,525.658752 238.346481,526.999207 235.709473,537.538696 
	C234.635574,541.830688 231.514984,540.807129 228.167969,539.872559 
	C237.727173,513.964966 250.585739,490.047668 273.534821,473.208984 
	C286.494110,463.700134 300.858734,457.399567 317.234467,456.851898 
	C324.352570,456.613861 327.239502,459.390533 327.821838,466.473907 
	C328.603271,475.979095 324.306824,483.965118 315.419495,487.800415 
	C303.745911,492.838135 293.534637,499.730927 285.359192,509.475555 
	C282.322632,513.094910 279.650909,517.020325 276.504547,520.949402 
z"/>
<path fill="#1179CF" opacity="1.000000" stroke="none" 
	d="
M309.972351,419.009949 
	C310.256683,419.193604 310.540985,419.377258 310.909882,420.209534 
	C311.086060,421.654236 311.177673,422.450348 311.269287,423.246460 
	C311.269287,423.246460 311.045563,422.986298 310.756104,423.075928 
	C308.680481,423.917450 306.894318,424.669373 305.108154,425.421295 
	C304.584778,425.599579 304.061401,425.777863 302.999390,425.672913 
	C296.741486,426.609863 291.036285,427.903534 285.293213,428.998566 
	C283.860321,429.271729 282.143707,429.297943 280.835052,428.761139 
	C275.901703,426.737244 273.282257,428.484650 273.121246,434.176819 
	C273.121246,434.176819 273.019653,434.095673 272.710815,434.066711 
	C270.565826,434.498749 268.722229,434.932251 266.896240,435.430389 
	C265.664612,435.766388 264.415222,436.623199 263.247253,436.507202 
	C257.504211,435.936737 252.146805,437.133118 246.809189,439.154480 
	C239.171631,442.046844 231.121536,444.104553 226.049393,451.366272 
	C225.531937,452.107086 224.496246,452.598145 223.600357,452.945343 
	C212.662933,457.184235 201.718491,461.405792 190.747162,465.555878 
	C187.888550,466.637238 185.797241,466.103394 185.839645,462.429260 
	C185.839645,462.429260 185.842346,462.147369 186.170898,461.932068 
	C186.648193,461.421448 186.796936,461.126160 186.945709,460.830872 
	C199.798950,441.376312 217.015213,427.028748 238.317902,417.742889 
	C256.452454,409.838013 275.317291,407.170471 294.763123,412.055603 
	C299.213104,413.173523 303.383728,415.403381 307.995911,417.681854 
	C308.863373,418.498138 309.417877,418.754059 309.972351,419.009949 
z"/>
<path fill="#1875CD" opacity="1.000000" stroke="none" 
	d="
M185.552902,462.648743 
	C185.797241,466.103394 187.888550,466.637238 190.747162,465.555878 
	C201.718491,461.405792 212.662933,457.184235 223.600357,452.945343 
	C224.496246,452.598145 225.531937,452.107086 226.049393,451.366272 
	C231.121536,444.104553 239.171631,442.046844 246.809189,439.154480 
	C252.146805,437.133118 257.504211,435.936737 263.247253,436.507202 
	C264.415222,436.623199 265.664612,435.766388 266.896240,435.430389 
	C268.722229,434.932251 270.565826,434.498749 272.774017,434.081848 
	C258.730377,440.672089 245.237244,448.635651 234.684845,460.685059 
	C229.684479,466.394836 225.304367,472.647827 220.128143,478.971466 
	C219.476288,479.616425 219.339539,479.944672 219.202820,480.272919 
	C219.202820,480.272919 219.178680,480.131226 218.936920,480.248962 
	C218.495178,480.953674 218.295197,481.540619 218.095200,482.127594 
	C218.095200,482.127594 218.038452,482.027069 217.668823,482.031494 
	C210.592026,484.521851 203.892456,487.028595 197.172318,489.478882 
	C195.522064,490.080627 193.787933,490.448730 192.121933,491.011749 
	C189.700760,491.830017 187.348907,492.882233 184.891388,493.557892 
	C180.386551,494.796478 175.851288,495.977692 171.258041,496.776459 
	C170.661606,496.880188 169.646545,494.576569 168.825394,493.388062 
	C174.305649,483.214783 179.785904,473.041473 185.552902,462.648743 
z"/>
<path fill="#3067C8" opacity="1.000000" stroke="none" 
	d="
M180.286545,557.810425 
	C180.342194,555.096313 179.184723,554.114258 176.114212,553.905090 
	C164.906952,553.141663 155.586136,558.248230 146.373611,563.317200 
	C140.286407,566.666504 135.116623,571.202271 127.391617,571.395447 
	C123.272858,571.498413 119.254227,574.668945 115.139969,576.329895 
	C113.386246,577.037903 111.503548,577.426453 109.265259,577.925171 
	C127.484894,566.017822 141.337006,549.861145 151.721268,530.483398 
	C152.672241,531.185852 153.561005,532.378235 153.989334,532.231018 
	C161.700211,529.580627 169.289444,526.558594 177.061401,524.114319 
	C179.509888,523.344299 182.422043,523.926880 185.111862,524.074585 
	C189.102615,524.293823 193.084351,524.677185 197.069916,524.990723 
	C191.563812,535.861145 186.057724,546.731628 180.286545,557.810425 
z"/>
<path fill="#236ECB" opacity="1.000000" stroke="none" 
	d="
M197.241058,524.694458 
	C193.084351,524.677185 189.102615,524.293823 185.111862,524.074585 
	C182.422043,523.926880 179.509888,523.344299 177.061401,524.114319 
	C169.289444,526.558594 161.700211,529.580627 153.989334,532.231018 
	C153.561005,532.378235 152.672241,531.185852 151.978241,530.252441 
	C157.392929,517.891724 162.827179,505.895599 168.543411,493.643799 
	C169.646545,494.576569 170.661606,496.880188 171.258041,496.776459 
	C175.851288,495.977692 180.386551,494.796478 184.891388,493.557892 
	C187.348907,492.882233 189.700760,491.830017 192.121933,491.011749 
	C193.787933,490.448730 195.522064,490.080627 197.172318,489.478882 
	C203.892456,487.028595 210.592026,484.521851 217.717407,482.062622 
	C211.227814,496.192261 204.320007,510.295197 197.241058,524.694458 
z"/>
<path fill="#1875CD" opacity="1.000000" stroke="none" 
	d="
M273.505005,434.145447 
	C273.282257,428.484650 275.901703,426.737244 280.835052,428.761139 
	C282.143707,429.297943 283.860321,429.271729 285.293213,428.998566 
	C291.036285,427.903534 296.741486,426.609863 302.719147,425.634644 
	C293.281342,428.624451 283.585052,431.369263 273.505005,434.145447 
z"/>
<path fill="#3067C8" opacity="1.000000" stroke="none" 
	d="
M108.565681,577.960205 
	C107.164848,582.806396 102.834023,583.363220 98.103607,583.920166 
	C101.202721,581.953918 104.719872,580.018799 108.565681,577.960205 
z"/>
<path fill="#9C50C5" opacity="1.000000" stroke="none" 
	d="
M227.540527,540.039734 
	C228.092743,541.249451 228.351120,542.653564 228.654892,544.304321 
	C227.606766,545.072021 226.469009,545.905396 224.983002,546.823303 
	C225.505402,544.683289 226.376053,542.458679 227.540527,540.039734 
z"/>
<path fill="#3067C8" opacity="1.000000" stroke="none" 
	d="
M87.501785,587.713257 
	C86.650597,588.230408 85.442551,588.760193 84.045372,588.996338 
	C84.952477,588.377014 86.048714,588.051453 87.501785,587.713257 
z"/>
<path fill="#3067C8" opacity="1.000000" stroke="none" 
	d="
M95.433746,584.779297 
	C94.374634,585.459167 92.969276,586.208862 91.139145,586.930786 
	C92.172081,586.218445 93.629784,585.533813 95.433746,584.779297 
z"/>
<path fill="#1875CD" opacity="1.000000" stroke="none" 
	d="
M305.489929,425.392792 
	C306.894318,424.669373 308.680481,423.917450 310.862244,423.209656 
	C309.462494,423.957245 307.667084,424.660767 305.489929,425.392792 
z"/>
<path fill="#3067C8" opacity="1.000000" stroke="none" 
	d="
M178.274384,560.863281 
	C178.455902,560.066650 178.891159,559.094543 179.673325,558.071899 
	C179.522858,558.910156 179.025482,559.798950 178.274384,560.863281 
z"/>
<path fill="#1875CD" opacity="1.000000" stroke="none" 
	d="
M311.538147,423.060059 
	C311.177673,422.450348 311.086060,421.654236 310.987183,420.458496 
	C311.255615,420.997131 311.531342,421.935394 311.538147,423.060059 
z"/>
<path fill="#236ECB" opacity="1.000000" stroke="none" 
	d="
M218.353302,481.970398 
	C218.295197,481.540619 218.495178,480.953674 219.006622,480.266479 
	C219.082520,480.715271 218.846954,481.264221 218.353302,481.970398 
z"/>
<path fill="#3067C8" opacity="1.000000" stroke="none" 
	d="
M176.236023,563.801880 
	C176.241211,563.422913 176.482742,562.866943 177.017868,562.198730 
	C177.031769,562.599304 176.752075,563.112122 176.236023,563.801880 
z"/>
<path fill="#3067C8" opacity="1.000000" stroke="none" 
	d="
M89.682083,586.967407 
	C89.473854,587.307983 88.947922,587.597412 88.103851,587.841187 
	C88.311935,587.502380 88.838158,587.209351 89.682083,586.967407 
z"/>
<path fill="#1875CD" opacity="1.000000" stroke="none" 
	d="
M309.833832,418.741821 
	C309.417877,418.754059 308.863373,418.498138 308.209045,417.940613 
	C308.637878,417.917236 309.166595,418.195496 309.833832,418.741821 
z"/>
<path fill="#9C50C5" opacity="1.000000" stroke="none" 
	d="
M275.028992,523.790649 
	C274.780182,523.783386 274.650635,523.589539 274.555145,523.380066 
	C274.545563,523.359070 274.742126,523.244080 275.033936,523.158203 
	C275.224884,523.143616 275.157867,523.599548 275.028992,523.790649 
z"/>
<path fill="#9C50C5" opacity="1.000000" stroke="none" 
	d="
M275.350952,523.068604 
	C275.123840,522.826355 275.248383,522.536133 275.684509,522.159546 
	C275.786041,522.340759 275.688202,522.656555 275.350952,523.068604 
z"/>
<path fill="#236ECB" opacity="1.000000" stroke="none" 
	d="
M219.451080,480.155518 
	C219.339539,479.944672 219.476288,479.616425 219.855972,479.161682 
	C219.965729,479.369446 219.832550,479.703766 219.451080,480.155518 
z"/>
<path fill="#1875CD" opacity="1.000000" stroke="none" 
	d="
M186.721863,460.958801 
	C186.796936,461.126160 186.648193,461.421448 186.288818,461.854797 
	C186.218140,461.690826 186.358093,461.388763 186.721863,460.958801 
z"/>
<path fill="#3067C8" opacity="1.000000" stroke="none" 
	d="
M175.307556,565.086243 
	C175.236816,564.919312 175.389343,564.607483 175.762878,564.150635 
	C175.832855,564.317566 175.681839,564.629456 175.307556,565.086243 
z"/>
<path fill="#3067C8" opacity="1.000000" stroke="none" 
	d="
M96.717758,584.057983 
	C96.745804,584.293945 96.502991,584.526001 96.001892,584.788391 
	C95.978043,584.563843 96.212471,584.308960 96.717758,584.057983 
z"/>
<path fill="#F5F5F5" opacity="1.000000" stroke="none" 
	d="
M823.811890,545.932556 
	C799.044373,559.684631 769.542480,544.026001 766.886719,516.157349 
	C765.413452,500.696381 768.507751,486.743347 781.248657,476.823944 
	C804.082947,459.046509 837.201050,472.276520 841.905518,500.883270 
	C844.929565,519.271362 840.072815,534.767883 823.811890,545.932556 
z"/>
<path fill="#F4F4F5" opacity="1.000000" stroke="none" 
	d="
M468.375885,504.580200 
	C462.777252,505.908447 457.529449,507.579346 452.183502,507.998596 
	C445.083282,508.555420 437.906494,508.135895 430.411926,508.135895 
	C430.411926,495.633972 430.411926,483.254852 430.411926,469.615906 
	C441.226807,470.176514 452.317200,470.037109 463.171661,471.569305 
	C470.216248,472.563690 474.510590,478.261322 475.703522,485.460907 
	C476.951660,492.993561 475.385071,499.685730 468.375885,504.580200 
z"/>
</svg>