<?xml version="1.0" encoding="UTF-8"?>
<svg id="Layer_1" xmlns="http://www.w3.org/2000/svg" baseProfile="tiny" version="1.2" viewBox="0 0 852 660">
  <!-- Generator: Adobe Illustrator 29.8.1, SVG Export Plug-In . SVG Version: 2.1.1 Build 2)  -->
  <g>
    <path d="M418.74,221.96c-.41.59-.85.91-1.33.97-.31.04-.59-.21-.58-.52.15-8.55,0-15.11-.48-19.69-.25-2.32-1.37-9.07-3.36-20.26-2.12-11.86-5.07-21.95-9.48-32.45-6.21-14.8-14.42-28.64-24.63-41.51-.21-.28-.61-.32-.89-.1-7.85,6.29-16.68,11.36-26.47,15.21-2.89,1.13-9.64,3-20.23,5.61-15.85,3.91-32.54,10.23-50.06,18.94-.2.1-.19.38,0,.47,2.47,1.12,4.44,2.03,5.9,2.73,16.58,7.99,28.54,20.37,35.87,37.13.81,1.83,1.68,3.92,2.63,6.27,1.86,4.59,2.57,10.23,3.54,13.84.62,2.31,1,4.79,1.13,7.43.39,7.33.37,14.94-.06,22.81-.06,1.19-.29,2.38-.7,3.57-.06.17-.3.16-.34-.01l-1.13-4.85" vector-effect="non-scaling-stroke" fill="none" stroke="#4eabc7" stroke-width="2"/>
    <path d="M118.12,273.69c.05,3.15-.48,4.93-1.58,5.36" vector-effect="non-scaling-stroke" fill="none" stroke="#479dc6" stroke-width="2"/>
    <path d="M116.54,279.05l-.26-92.82c0-.31-.25-.56-.56-.57-15.27-.1-25.85-.24-31.73-.43-8.2-.27-14.39-.75-18.57-1.45-14.16-2.37-22.66-3.92-34.84-3.96-.28,0-.51.23-.52.51l-.15,89.41" vector-effect="non-scaling-stroke" fill="none" stroke="#4eabc7" stroke-width="2"/>
    <path d="M29.91,269.74l-.66,22.47c0,.08-.06.14-.14.14h-.28c-.18,0-.34-.14-.36-.33l-.78-7.56" vector-effect="non-scaling-stroke" fill="none" stroke="#479dc6" stroke-width="2"/>
    <path d="M397.47,308.95c-.5.03-.87-.09-1.12-.35-.16-.17-.2-.43-.1-.64,3.76-7.48,6.46-13.43,8.11-17.84,1.97-5.29,4.36-13.01,7.18-23.18" vector-effect="non-scaling-stroke" fill="none" stroke="#4496c4" stroke-width="2"/>
    <path d="M411.54,266.94c2.31-10.59,3.85-21.32,4.6-32.21.02-.3-.18-.57-.47-.64-9.73-2.23-19.57-2.05-29.52.52-18.5,4.78-37.42,8.78-56.76,12.01-.31.05-.56.29-.63.6-2.9,13.43-8.6,25.42-17.11,35.97" vector-effect="non-scaling-stroke" fill="none" stroke="#479ec3" stroke-width="2"/>
    <path d="M311.65,283.19c-5.39,6.27-10.85,11.13-16.36,14.6-6.87,4.32-15.26,7.69-25.19,10.11-7.66,1.87-16.78,1.4-24.6,2.23-5.15.55-11.31.8-18.48.77-15.55-.06-32.47.08-50.75.42-.81,0-1.29.91-.87,1.6l20.04,32.65" vector-effect="non-scaling-stroke" fill="none" stroke="#4496c4" stroke-width="2"/>
    <path d="M195.44,345.57c2.97,4.87,5.84,9.72,8.61,14.56,1.15,2.01,1.55,3.9,1.22,5.65" vector-effect="non-scaling-stroke" fill="none" stroke="#408ec1" stroke-width="2"/>
    <path d="M116.54,279.05l-.38-9.39c-.01-.25-.24-.44-.48-.39-17.05,3.39-33.4,4.29-49.03,2.71-14.21-1.43-26.45-2.17-36.74-2.24" vector-effect="non-scaling-stroke" fill="none" stroke="#4496c4" stroke-width="2"/>
    <path d="M118.06,378.7c-.38.27-.53.63-.44,1.09,0,.02,0,.04,0,.05-.51-2.03-1.14-3.4-1.16-5.5-.19-14.75-.3-24.82-.33-30.19,0-.28-.22-.51-.5-.53-11.13-.63-18.85-.91-23.14-.84-23.41.38-44.11.33-62.12-.15-.29-.01-.53.22-.53.51v36.56c0,.22-.17.39-.39.39h-.68c-.26,0-.46-.2-.47-.45l-.57-19.85" vector-effect="non-scaling-stroke" fill="none" stroke="#3878be" stroke-width="2"/>
    <path d="M411.54,266.94c-19.02,3.31-37.61,8-56.37,12.52-13.43,3.23-27.93,4.48-43.52,3.73" vector-effect="non-scaling-stroke" fill="none" stroke="#4190c1" stroke-width="2"/>
    <path d="M325.83,390.19c-.71.56-1.44.68-2.2.36-.21-.08-.38-.24-.5-.43l-7.24-11.63c-.38-.6-.13-1.4.52-1.69l11.1-5" vector-effect="non-scaling-stroke" fill="none" stroke="#3472bc" stroke-width="2"/>
    <path d="M327.51,371.8c8.87-3.23,16.69-7.34,23.44-12.33,8.42-6.23,14.18-10.92,17.27-14.05,10.11-10.27,18.69-21.75,25.73-34.44.12-.21-.04-.46-.28-.46-14.83.53-25.76,2.76-40.63,5.7-13.67,2.71-33.29,5.29-47.94,8.43-18.4,3.96-35.91,8.41-55.17,11.96-18.08,3.33-36.24,6.31-54.49,8.96" vector-effect="non-scaling-stroke" fill="none" stroke="#3980bf" stroke-width="2"/>
    <path d="M327.51,371.8c-15.36-.69-30.61.45-45.74,3.42-20.53,4.03-40.67,7.86-60.41,11.47-.24.04-.36.31-.24.53,5.01,8.63,10.86,18.33,17.55,29.09,4.92,7.91,10.06,17.41,15.28,25.72.59.95,1.11,2.93,1.54,5.95" vector-effect="non-scaling-stroke" fill="none" stroke="#306ab9" stroke-width="2"/>
    <path d="M118.1,432.96l-.75,5.26c-.02.13-.14.23-.28.23-.13-.01-.24-.12-.24-.26l-.56-33.19c0-.27-.23-.47-.49-.45-20.33,1.59-32.65,2.42-36.96,2.48-17.66.25-34.48.92-50.45,1.99-.26.02-.49-.19-.5-.45l-.32-6.79" vector-effect="non-scaling-stroke" fill="none" stroke="#2f62b7" stroke-width="2"/>
    <path d="M405.59,518.89c-.86.36-1.68.41-2.45.14-.26-.09-.48-.27-.63-.5l-34.47-55.43c-.23-.36-.62-.6-1.05-.63-8.51-.51-16.4.48-23.66,2.97-23.99,8.23-44.61,14.67-61.84,19.33-.28.08-.41.4-.26.65,8.58,14.23,14.53,24.28,17.85,30.14.91,1.62,1.38,3.51,1.4,5.68" vector-effect="non-scaling-stroke" fill="none" stroke="#304daf" stroke-width="2"/>
    <path d="M118.18,466.94c-2.33,5.26-5.06,8.76-10.94,9.61-19.8,2.86-35.56,5.2-55.06,6.04-8.53.37-17.19-.45-23.83-6.57-.23-.22-.39-.51-.45-.83l-.3-1.73" vector-effect="non-scaling-stroke" fill="none" stroke="#2351b1" stroke-width="2"/>
    <path d="M501.07,418.92l-2.55.3" vector-effect="non-scaling-stroke" fill="none" stroke="#3e87bf" stroke-width="2"/>
    <path d="M498.52,419.22c-.54-.29-.65-.42-.32-.39" vector-effect="non-scaling-stroke" fill="none" stroke="#428dc1" stroke-width="2"/>
    <path d="M498.2,418.83c-3.31-3.67-6.05-7.1-8.21-10.28-7.04-10.4-13.19-21.65-18.44-33.75-3.69-8.48-6.8-19.12-9.33-31.93-1.31-6.6-1.44-12.51-2.18-19.99-1.41-14.27-.68-27.66,1.17-43.01.64-5.34,1.9-9.65,2.76-14.6.09-.5.23-.99.42-1.46,1.53-3.8,2.12-7.95,3.29-11.56,3.59-11.05,8.03-21.71,13.33-32" vector-effect="non-scaling-stroke" fill="none" stroke="#479dc6" stroke-width="2"/>
    <path d="M481.01,220.25c3.55-5.85,7.17-12.58,10.99-17.43,3.08-3.89,5.25-7.33,9.04-11.76,16.73-19.57,37.28-33.85,61.64-42.86,11.09-4.11,22.2-6.71,33.33-7.82,8.73-.87,17.98-1.06,27.73-.59" vector-effect="non-scaling-stroke" fill="none" stroke="#4eabc7" stroke-width="2"/>
    <path d="M623.74,139.79c9.38.71,16.44,1.55,21.17,2.53,9.07,1.87,19.52,5.36,31.35,10.47,9.44,4.07,19.32,10.02,29.64,17.85,3.82,2.9,6.5,5.71,9.78,8.37,5.26,4.26,10.72,10.47,14.69,15.59.52.67,1.51.71,2.09.1,5.14-5.49,12.78-12.62,18.94-19.45,1.71-1.89,4.12-4.26,7.23-7.1,4.41-4.03,7.96-8.21,12.56-12.47,3.14-2.91,5.83-6.22,8.38-8.6,4.28-4,9.37-8.94,15.27-14.83.48-.47.5-1.25.04-1.75-7.62-8.33-16.31-16.51-26.07-24.52-8.12-6.66-16.16-12.47-24.12-17.42-10.57-6.57-22.36-12.52-35.39-17.85" vector-effect="non-scaling-stroke" fill="none" stroke="#4ba5c5" stroke-width="2"/>
    <path d="M709.3,70.71c-16.71-7.06-33.94-12.09-51.69-15.09-5.11-.86-9.38-1.03-12.81-.51-13.27,2.03-23.02,10.53-31.49,19.95-9.1,10.12-16.78,17.45-23.05,21.98-8.31,6.01-17.24,12.39-26.78,19.16-5.68,4.03-11.19,7.48-16.53,10.34-16.44,8.81-27.8,15.25-34.07,19.31-12.09,7.84-21.4,14.15-33.81,21.31-11.36,6.55-16.23,8.86-24.64,14.57-.29.19-.44.53-.4.88,1.29,9.33,2.11,18.56,2.45,27.67.29,7.82-.17,15.83-.46,23.81" vector-effect="non-scaling-stroke" fill="none" stroke="#4eabc7" stroke-width="2"/>
    <path d="M456.02,234.09c-.26,5.5-1.22,11.03-1.65,16.38-.23,2.85-.61,5.31-1.14,7.38-.85,3.22-.79,6.54-1.93,10.19-.34,1.07-.87,3.21-1.58,6.41-4.63,20.59-12.32,39.98-23.09,58.16-4.59,7.76-10.23,15.7-16.93,23.82-5.61,6.8-12.75,12.89-18.56,18.66-1.79,1.78-5.06,2.44-3.88,6.22" vector-effect="non-scaling-stroke" fill="none" stroke="#479dc6" stroke-width="2"/>
    <path d="M387.26,381.31c-.33.74-.82,1.46-1.47,2.17" vector-effect="non-scaling-stroke" fill="none" stroke="#428dc1" stroke-width="2"/>
    <path d="M608.53,474.75c-25.95,17.43-41.75,26.34-76.46,46.52-4.49,2.61-10.55,6.45-18.18,11.54-.18.12-.17.4.02.5,8.54,4.55,17.41,8.38,26.6,11.49" vector-effect="non-scaling-stroke" fill="none" stroke="#304daf" stroke-width="2"/>
    <path d="M709.3,70.71c-8.83,5.31-15.26,9.63-19.3,12.98-16.83,13.93-36.16,29.29-58.01,46.06-3.31,2.54-6.06,5.89-8.25,10.04" vector-effect="non-scaling-stroke" fill="none" stroke="#479ec3" stroke-width="2"/>
    <path d="M481.01,220.25c-8.69,3.85-17.02,8.47-24.99,13.84" vector-effect="non-scaling-stroke" fill="none" stroke="#4496c4" stroke-width="2"/>
    <path d="M498.52,419.22c1.69,2.53,3.79,4.93,6.3,7.2,4.48,4.05,11.41,11.3,17.33,15.66,7.62,5.61,14.81,10.36,21.57,14.23.39.22.38.79,0,1-11.37,6.25-20.73,11.24-28.07,14.97-7.11,3.61-12.99,6.2-17.64,7.75-13.33,4.47-20.63,6.94-21.88,7.41-9.54,3.61-13.27,7.79-10.33,18.17" vector-effect="non-scaling-stroke" fill="none" stroke="#2f62b7" stroke-width="2"/>
    <path d="M498.2,418.83c-26.42,7.75-51.83,17.24-80.92,28.19-.29.11-.62,0-.78-.26-5.55-8.52-10.55-18.21-16.24-30.09-1.69-3.51-3.45-7.68-5.28-12.51-1.21-3.2-2.72-7.48-4.52-12.83-1.12-3.32-2.19-6.66-3.2-10.02" vector-effect="non-scaling-stroke" fill="none" stroke="#3878be" stroke-width="2"/>
    <path d="M820.36,370.24c-6.49,7.12-13.33,14.54-19.93,20.91-14.24,13.76-23.71,23.22-28.41,28.38-12.53,13.74-21.84,23.84-27.93,30.3-12.91,13.7-28.66,28.23-47.24,43.58-15.75,13.02-33.47,24.19-50.92,37.25-8.97,6.71-18.55,15.59-28.72,26.63-.15.17-.04.44.19.44,8.23.22,17.61.14,28.14-.25.85-.03,1.57.61,1.59,1.42.02.7.75,1.07,2.18,1.11" vector-effect="non-scaling-stroke" fill="none" stroke="#5631a4" stroke-width="2"/>
    <path d="M541.78,547.56c-.1-.97-.52-1.89-1.27-2.76" vector-effect="non-scaling-stroke" fill="none" stroke="#3b48ad" stroke-width="2"/>
    <path d="M540.51,544.8l7.04,1.98c.31.09.64,0,.87-.22,9.79-9.22,20.52-17.11,32.19-23.68,7.43-4.19,16.77-8.42,23.85-12.86,14.12-8.86,28.92-21.79,40.05-32.61.22-.22.51-.36.82-.41,14.89-2.37,27.77-5.81,38.64-10.31,19.71-8.15,36.89-20.19,51.55-36.12,1.51-1.65,2.29-3.5,2.32-5.56" vector-effect="non-scaling-stroke" fill="none" stroke="#4038a7" stroke-width="2"/>
    <path d="M820.29,330.24c-12.13,4.8-21.55,12.75-30.47,21.84-16.25,16.59-33,33.9-45.12,53.15-1.11,1.75-3.23,5.69-6.37,11.82" vector-effect="non-scaling-stroke" fill="none" stroke="#4038a7" stroke-width="2"/>
    <path d="M687.63,356.03c21.36-20.03,35.84-34.1,43.45-42.2,10.81-11.52,17.94-18.93,21.4-22.22,7.26-6.92,16.46-13.48,27.59-19.68" vector-effect="non-scaling-stroke" fill="none" stroke="#304daf" stroke-width="2"/>
    <path d="M642.01,271.93c-.81.51-.25.9,1.68,1.19.19.03.21.3.03.36-5.75,2.05-9.48,1.33-18.05,1.05-1.04-.03-2.46.17-4.26.6-.31.07-.54.35-.53.68.24,10.07.29,24.47.14,43.2-.01,1.21-.21,10.79-.58,28.74-.01.37-.4.6-.73.43-.22-.11-.45-.34-.68-.67" vector-effect="non-scaling-stroke" fill="none" stroke="#3472bc" stroke-width="2"/>
  </g>
  <path d="M418.74,221.96c-.41.59-.85.91-1.33.97-.31.04-.59-.21-.58-.52.15-8.55,0-15.11-.48-19.69-.25-2.32-1.37-9.07-3.36-20.26-2.12-11.86-5.07-21.95-9.48-32.45-6.21-14.8-14.42-28.64-24.63-41.51-.21-.28-.61-.32-.89-.1-7.85,6.29-16.68,11.36-26.47,15.21-2.89,1.13-9.64,3-20.23,5.61-15.85,3.91-32.54,10.23-50.06,18.94-.2.1-.19.38,0,.47,2.47,1.12,4.44,2.03,5.9,2.73,16.58,7.99,28.54,20.37,35.87,37.13.81,1.83,1.68,3.92,2.63,6.27,1.86,4.59,2.57,10.23,3.54,13.84.62,2.31,1,4.79,1.13,7.43.39,7.33.37,14.94-.06,22.81-.06,1.19-.29,2.38-.7,3.57-.06.17-.3.16-.34-.01l-1.13-4.85c2.29-21.03-1.41-42.45-13.36-60.08-14.14-20.84-39.29-32.59-64.21-32.6-47,0-90.75.04-131.24.13-.56,0-1.01.45-1.01,1.01l-.14,127.68c.05,3.15-.48,4.93-1.58,5.36l-.26-92.82c0-.31-.25-.56-.56-.57-15.27-.1-25.85-.24-31.73-.43-8.2-.27-14.39-.75-18.57-1.45-14.16-2.37-22.66-3.92-34.84-3.96-.28,0-.51.23-.52.51l-.15,89.41-.66,22.47c0,.08-.06.14-.14.14h-.28c-.18,0-.34-.14-.36-.33l-.78-7.56V50.75c0-.65.52-1.17,1.16-1.17,72.81-.03,146.45-.05,220.9-.05,9.28,0,16.86.25,22.75.74,30.55,2.58,57.36,12.59,80.43,30.04,34.06,25.76,56.62,64.63,63.43,107.15,1.78,11.1,2.57,22.6,2.38,34.5Z" fill="#51b2c9"/>
  <path d="M501.07,418.92l-2.55.3c-.54-.29-.65-.42-.32-.39-3.31-3.67-6.05-7.1-8.21-10.28-7.04-10.4-13.19-21.65-18.44-33.75-3.69-8.48-6.8-19.12-9.33-31.93-1.31-6.6-1.44-12.51-2.18-19.99-1.41-14.27-.68-27.66,1.17-43.01.64-5.34,1.9-9.65,2.76-14.6.09-.5.23-.99.42-1.46,1.53-3.8,2.12-7.95,3.29-11.56,3.59-11.05,8.03-21.71,13.33-32,3.55-5.85,7.17-12.58,10.99-17.43,3.08-3.89,5.25-7.33,9.04-11.76,16.73-19.57,37.28-33.85,61.64-42.86,11.09-4.11,22.2-6.71,33.33-7.82,8.73-.87,17.98-1.06,27.73-.59,9.38.71,16.44,1.55,21.17,2.53,9.07,1.87,19.52,5.36,31.35,10.47,9.44,4.07,19.32,10.02,29.64,17.85,3.82,2.9,6.5,5.71,9.78,8.37,5.26,4.26,10.72,10.47,14.69,15.59.52.67,1.51.71,2.09.1,5.14-5.49,12.78-12.62,18.94-19.45,1.71-1.89,4.12-4.26,7.23-7.1,4.41-4.03,7.96-8.21,12.56-12.47,3.14-2.91,5.83-6.22,8.38-8.6,4.28-4,9.37-8.94,15.27-14.83.48-.47.5-1.25.04-1.75-7.62-8.33-16.31-16.51-26.07-24.52-8.12-6.66-16.16-12.47-24.12-17.42-10.57-6.57-22.36-12.52-35.39-17.85-16.71-7.06-33.94-12.09-51.69-15.09-5.11-.86-9.38-1.03-12.81-.51-13.27,2.03-23.02,10.53-31.49,19.95-9.1,10.12-16.78,17.45-23.05,21.98-8.31,6.01-17.24,12.39-26.78,19.16-5.68,4.03-11.19,7.48-16.53,10.34-16.44,8.81-27.8,15.25-34.07,19.31-12.09,7.84-21.4,14.15-33.81,21.31-11.36,6.55-16.23,8.86-24.64,14.57-.29.19-.44.53-.4.88,1.29,9.33,2.11,18.56,2.45,27.67.29,7.82-.17,15.83-.46,23.81-.26,5.5-1.22,11.03-1.65,16.38-.23,2.85-.61,5.31-1.14,7.38-.85,3.22-.79,6.54-1.93,10.19-.34,1.07-.87,3.21-1.58,6.41-4.63,20.59-12.32,39.98-23.09,58.16-4.59,7.76-10.23,15.7-16.93,23.82-5.61,6.8-12.75,12.89-18.56,18.66-1.79,1.78-5.06,2.44-3.88,6.22-.33.74-.82,1.46-1.47,2.17l-1.51-4.8c-.09-.3,0-.62.23-.82,4.05-3.51,6.74-5.85,8.07-7.03,24.77-22,41.72-51.05,51.41-82.82,5.51-18.08,8.72-36.25,9.63-54.51.93-18.59.33-35.11-1.8-49.55-2.31-15.63-6.37-31.15-12.18-46.56-1.69-4.47-3.21-8-4.55-10.6-.13-.26-.09-.57.11-.78,42.76-46.09,102.12-72.83,164.84-76.11,46.27-2.42,89.4,6.83,129.4,27.74,26.52,13.86,48.89,31.65,68.89,53.78.07.08.07.21-.01.29l-66.13,66.13c-.45.45-1.18.41-1.58-.08-29.59-36.37-71.54-56.82-118.66-56.02-50.67.86-93.94,25.12-121.77,67.2-16.2,24.49-25.7,52.99-28.11,82.82-.71,8.8-.71,19.04.02,30.73,2.05,32.8,13.01,62.4,32.86,88.8,1.3,1.73,3.34,4.27,6.12,7.63Z" fill="#51b2c9"/>
  <path d="M709.3,70.71c-8.83,5.31-15.26,9.63-19.3,12.98-16.83,13.93-36.16,29.29-58.01,46.06-3.31,2.54-6.06,5.89-8.25,10.04-9.75-.47-19-.28-27.73.59-11.13,1.11-22.24,3.71-33.33,7.82-24.36,9.01-44.91,23.29-61.64,42.86-3.79,4.43-5.96,7.87-9.04,11.76-3.82,4.85-7.44,11.58-10.99,17.43-8.69,3.85-17.02,8.47-24.99,13.84.29-7.98.75-15.99.46-23.81-.34-9.11-1.16-18.34-2.45-27.67-.04-.35.11-.69.4-.88,8.41-5.71,13.28-8.02,24.64-14.57,12.41-7.16,21.72-13.47,33.81-21.31,6.27-4.06,17.63-10.5,34.07-19.31,5.34-2.86,10.85-6.31,16.53-10.34,9.54-6.77,18.47-13.15,26.78-19.16,6.27-4.53,13.95-11.86,23.05-21.98,8.47-9.42,18.22-17.92,31.49-19.95,3.43-.52,7.7-.35,12.81.51,17.75,3,34.98,8.03,51.69,15.09Z" fill="#4aa4c5"/>
  <path d="M709.3,70.71c13.03,5.33,24.82,11.28,35.39,17.85,7.96,4.95,16,10.76,24.12,17.42,9.76,8.01,18.45,16.19,26.07,24.52.46.5.44,1.28-.04,1.75-5.9,5.89-10.99,10.83-15.27,14.83-2.55,2.38-5.24,5.69-8.38,8.6-4.6,4.26-8.15,8.44-12.56,12.47-3.11,2.84-5.52,5.21-7.23,7.1-6.16,6.83-13.8,13.96-18.94,19.45-.58.61-1.57.57-2.09-.1-3.97-5.12-9.43-11.33-14.69-15.59-3.28-2.66-5.96-5.47-9.78-8.37-10.32-7.83-20.2-13.78-29.64-17.85-11.83-5.11-22.28-8.6-31.35-10.47-4.73-.98-11.79-1.82-21.17-2.53,2.19-4.15,4.94-7.5,8.25-10.04,21.85-16.77,41.18-32.13,58.01-46.06,4.04-3.35,10.47-7.67,19.3-12.98Z" fill="#4498c0"/>
  <path d="M418.74,221.96c-.34,30.24-7.32,60.13-21.27,86.99-.5.03-.87-.09-1.12-.35-.16-.17-.2-.43-.1-.64,3.76-7.48,6.46-13.43,8.11-17.84,1.97-5.29,4.36-13.01,7.18-23.18,2.31-10.59,3.85-21.32,4.6-32.21.02-.3-.18-.57-.47-.64-9.73-2.23-19.57-2.05-29.52.52-18.5,4.78-37.42,8.78-56.76,12.01-.31.05-.56.29-.63.6-2.9,13.43-8.6,25.42-17.11,35.97-5.39,6.27-10.85,11.13-16.36,14.6-6.87,4.32-15.26,7.69-25.19,10.11-7.66,1.87-16.78,1.4-24.6,2.23-5.15.55-11.31.8-18.48.77-15.55-.06-32.47.08-50.75.42-.81,0-1.29.91-.87,1.6l20.04,32.65c2.97,4.87,5.84,9.72,8.61,14.56,1.15,2.01,1.55,3.9,1.22,5.65l-35.4-57.53c-.11-.18.02-.4.23-.4,24.41-.05,51.62-.08,81.65-.11,1.93,0,5.94-.39,12.02-1.17,36.92-4.73,60.2-33.31,64.31-69.02l1.13,4.85c.04.17.28.18.34.01.41-1.19.64-2.38.7-3.57.43-7.87.45-15.48.06-22.81-.13-2.64-.51-5.12-1.13-7.43-.97-3.61-1.68-9.25-3.54-13.84-.95-2.35-1.82-4.44-2.63-6.27-7.33-16.76-19.29-29.14-35.87-37.13-1.46-.7-3.43-1.61-5.9-2.73-.2-.09-.21-.37,0-.47,17.52-8.71,34.21-15.03,50.06-18.94,10.59-2.61,17.34-4.48,20.23-5.61,9.79-3.85,18.62-8.92,26.47-15.21.28-.22.68-.18.89.1,10.21,12.87,18.42,26.71,24.63,41.51,4.41,10.5,7.36,20.59,9.48,32.45,1.99,11.19,3.11,17.94,3.36,20.26.47,4.58.63,11.14.48,19.69,0,.31.27.56.58.52.48-.06.92-.38,1.33-.97Z" fill="#4aa4c5"/>
  <path d="M116.54,279.05l-.38-9.39c-.01-.25-.24-.44-.48-.39-17.05,3.39-33.4,4.29-49.03,2.71-14.21-1.43-26.45-2.17-36.74-2.24l.15-89.41c.01-.28.24-.51.52-.51,12.18.04,20.68,1.59,34.84,3.96,4.18.7,10.37,1.18,18.57,1.45,5.88.19,16.46.33,31.73.43.31,0,.56.26.56.57l.26,92.82Z" fill="#4aa4c5"/>
  <path d="M481.01,220.25c-5.3,10.29-9.74,20.95-13.33,32-1.17,3.61-1.76,7.76-3.29,11.56-.19.47-.33.96-.42,1.46-.86,4.95-2.12,9.26-2.76,14.6-1.85,15.35-2.58,28.74-1.17,43.01.74,7.48.87,13.39,2.18,19.99,2.53,12.81,5.64,23.45,9.33,31.93,5.25,12.1,11.4,23.35,18.44,33.75,2.16,3.18,4.9,6.61,8.21,10.28-26.42,7.75-51.83,17.24-80.92,28.19-.29.11-.62,0-.78-.26-5.55-8.52-10.55-18.21-16.24-30.09-1.69-3.51-3.45-7.68-5.28-12.51-1.21-3.2-2.72-7.48-4.52-12.83-1.12-3.32-2.19-6.66-3.2-10.02-1.18-3.78,2.09-4.44,3.88-6.22,5.81-5.77,12.95-11.86,18.56-18.66,6.7-8.12,12.34-16.06,16.93-23.82,10.77-18.18,18.46-37.57,23.09-58.16.71-3.2,1.24-5.34,1.58-6.41,1.14-3.65,1.08-6.97,1.93-10.19.53-2.07.91-4.53,1.14-7.38.43-5.35,1.39-10.88,1.65-16.38,7.97-5.37,16.3-9.99,24.99-13.84Z" fill="#3d88c2"/>
  <path d="M411.54,266.94c-19.02,3.31-37.61,8-56.37,12.52-13.43,3.23-27.93,4.48-43.52,3.73,8.51-10.55,14.21-22.54,17.11-35.97.07-.31.32-.55.63-.6,19.34-3.23,38.26-7.23,56.76-12.01,9.95-2.57,19.79-2.75,29.52-.52.29.07.49.34.47.64-.75,10.89-2.29,21.62-4.6,32.21Z" fill="#4498c0"/>
  <path d="M116.54,279.05c1.1-.43,1.63-2.21,1.58-5.36l-.06,105.01c-.38.27-.53.63-.44,1.09,0,.02,0,.04,0,.05-.51-2.03-1.14-3.4-1.16-5.5-.19-14.75-.3-24.82-.33-30.19,0-.28-.22-.51-.5-.53-11.13-.63-18.85-.91-23.14-.84-23.41.38-44.11.33-62.12-.15-.29-.01-.53.22-.53.51v36.56c0,.22-.17.39-.39.39h-.68c-.26,0-.46-.2-.47-.45l-.57-19.85-.05-75.33.78,7.56c.02.19.18.33.36.33h.28c.08,0,.14-.06.14-.14l.66-22.47c10.29.07,22.53.81,36.74,2.24,15.63,1.58,31.98.68,49.03-2.71.24-.05.47.14.48.39l.38,9.39Z" fill="#3d88c2"/>
  <path d="M411.54,266.94c-2.82,10.17-5.21,17.89-7.18,23.18-1.65,4.41-4.35,10.36-8.11,17.84-.1.21-.06.47.1.64.25.26.62.38,1.12.35-7.57,14.43-17.1,27.32-28.59,38.67-14.44,14.26-31.32,24.31-50.65,30.14-.25.08-.35.36-.21.58l7.81,11.85c-.71.56-1.44.68-2.2.36-.21-.08-.38-.24-.5-.43l-7.24-11.63c-.38-.6-.13-1.4.52-1.69l11.1-5c8.87-3.23,16.69-7.34,23.44-12.33,8.42-6.23,14.18-10.92,17.27-14.05,10.11-10.27,18.69-21.75,25.73-34.44.12-.21-.04-.46-.28-.46-14.83.53-25.76,2.76-40.63,5.7-13.67,2.71-33.29,5.29-47.94,8.43-18.4,3.96-35.91,8.41-55.17,11.96-18.08,3.33-36.24,6.31-54.49,8.96l-20.04-32.65c-.42-.69.06-1.59.87-1.6,18.28-.34,35.2-.48,50.75-.42,7.17.03,13.33-.22,18.48-.77,7.82-.83,16.94-.36,24.6-2.23,9.93-2.42,18.32-5.79,25.19-10.11,5.51-3.47,10.97-8.33,16.36-14.6,15.59.75,30.09-.5,43.52-3.73,18.76-4.52,37.35-9.21,56.37-12.52Z" fill="#3d88c2"/>
  <path d="M820.29,330.24c-12.13,4.8-21.55,12.75-30.47,21.84-16.25,16.59-33,33.9-45.12,53.15-1.11,1.75-3.23,5.69-6.37,11.82l-.2-59.74c0-.68-.55-1.22-1.23-1.23l-49.27-.05c21.36-20.03,35.84-34.1,43.45-42.2,10.81-11.52,17.94-18.93,21.4-22.22,7.26-6.92,16.46-13.48,27.59-19.68l39.15.1c.52,0,.95.43.95.95l.12,57.26Z" fill="#353da9"/>
  <path d="M642.01,271.93c-.81.51-.25.9,1.68,1.19.19.03.21.3.03.36-5.75,2.05-9.48,1.33-18.05,1.05-1.04-.03-2.46.17-4.26.6-.31.07-.54.35-.53.68.24,10.07.29,24.47.14,43.2-.01,1.21-.21,10.79-.58,28.74-.01.37-.4.6-.73.43-.22-.11-.45-.34-.68-.67l-.19-75.06c0-.2.17-.37.37-.37l22.8-.15Z" fill="#3d88c2"/>
  <path d="M780.07,271.93c-11.13,6.2-20.33,12.76-27.59,19.68-3.46,3.29-10.59,10.7-21.4,22.22-7.61,8.1-22.09,22.17-43.45,42.2l-67.43.06c-.66,0-1.2-.54-1.19-1.21l.02-7.37c.23.33.46.56.68.67.33.17.72-.06.73-.43.37-17.95.57-27.53.58-28.74.15-18.73.1-33.13-.14-43.2-.01-.33.22-.61.53-.68,1.8-.43,3.22-.63,4.26-.6,8.57.28,12.3,1,18.05-1.05.18-.06.16-.33-.03-.36-1.93-.29-2.49-.68-1.68-1.19h138.06Z" fill="#2b5cb5"/>
  <path d="M327.51,371.8c-15.36-.69-30.61.45-45.74,3.42-20.53,4.03-40.67,7.86-60.41,11.47-.24.04-.36.31-.24.53,5.01,8.63,10.86,18.33,17.55,29.09,4.92,7.91,10.06,17.41,15.28,25.72.59.95,1.11,2.93,1.54,5.95l-50.22-82.2c.33-1.75-.07-3.64-1.22-5.65-2.77-4.84-5.64-9.69-8.61-14.56,18.25-2.65,36.41-5.63,54.49-8.96,19.26-3.55,36.77-8,55.17-11.96,14.65-3.14,34.27-5.72,47.94-8.43,14.87-2.94,25.8-5.17,40.63-5.7.24,0,.4.25.28.46-7.04,12.69-15.62,24.17-25.73,34.44-3.09,3.13-8.85,7.82-17.27,14.05-6.75,4.99-14.57,9.1-23.44,12.33Z" fill="#3578bc"/>
  <path d="M820.29,330.24l.07,40c-6.49,7.12-13.33,14.54-19.93,20.91-14.24,13.76-23.71,23.22-28.41,28.38-12.53,13.74-21.84,23.84-27.93,30.3-12.91,13.7-28.66,28.23-47.24,43.58-15.75,13.02-33.47,24.19-50.92,37.25-8.97,6.71-18.55,15.59-28.72,26.63-.15.17-.04.44.19.44,8.23.22,17.61.14,28.14-.25.85-.03,1.57.61,1.59,1.42.02.7.75,1.07,2.18,1.11-2.01.23-3.97.42-5.88.55-34.23,2.39-69.25-1.51-101.65-13-.1-.97-.52-1.89-1.27-2.76l7.04,1.98c.31.09.64,0,.87-.22,9.79-9.22,20.52-17.11,32.19-23.68,7.43-4.19,16.77-8.42,23.85-12.86,14.12-8.86,28.92-21.79,40.05-32.61.22-.22.51-.36.82-.41,14.89-2.37,27.77-5.81,38.64-10.31,19.71-8.15,36.89-20.19,51.55-36.12,1.51-1.65,2.29-3.5,2.32-5.56l.49-7.96c3.14-6.13,5.26-10.07,6.37-11.82,12.12-19.25,28.87-36.56,45.12-53.15,8.92-9.09,18.34-17.04,30.47-21.84Z" fill="#4b33a5"/>
  <path d="M118.06,378.7l.04,54.26-.75,5.26c-.02.13-.14.23-.28.23-.13-.01-.24-.12-.24-.26l-.56-33.19c0-.27-.23-.47-.49-.45-20.33,1.59-32.65,2.42-36.96,2.48-17.66.25-34.48.92-50.45,1.99-.26.02-.49-.19-.5-.45l-.32-6.79.19-41.99.57,19.85c.01.25.21.45.47.45h.68c.22,0,.39-.17.39-.39v-36.56c0-.29.24-.52.53-.51,18.01.48,38.71.53,62.12.15,4.29-.07,12.01.21,23.14.84.28.02.5.25.5.53.03,5.37.14,15.44.33,30.19.02,2.1.65,3.47,1.16,5.5,0-.01,0-.03,0-.05-.09-.46.06-.82.44-1.09Z" fill="#3368b9"/>
  <path d="M327.51,371.8l-11.1,5c-.65.29-.9,1.09-.52,1.69l7.24,11.63c.12.19.29.35.5.43.76.32,1.49.2,2.2-.36l79.76,128.7c-.86.36-1.68.41-2.45.14-.26-.09-.48-.27-.63-.5l-34.47-55.43c-.23-.36-.62-.6-1.05-.63-8.51-.51-16.4.48-23.66,2.97-23.99,8.23-44.61,14.67-61.84,19.33-.28.08-.41.4-.26.65,8.58,14.23,14.53,24.28,17.85,30.14.91,1.62,1.38,3.51,1.4,5.68l-44.99-73.26c-.43-3.02-.95-5-1.54-5.95-5.22-8.31-10.36-17.81-15.28-25.72-6.69-10.76-12.54-20.46-17.55-29.09-.12-.22,0-.49.24-.53,19.74-3.61,39.88-7.44,60.41-11.47,15.13-2.97,30.38-4.11,45.74-3.42Z" fill="#2b5cb5"/>
  <path d="M820.36,370.24c.02,29.95.04,59.87.05,89.76,0,1.67-.41,3.08-1.23,4.23-20.07,27.95-44.93,50.07-74.56,66.37-29.49,16.21-61.26,26.02-95.31,29.41-1.43-.04-2.16-.41-2.18-1.11-.02-.81-.74-1.45-1.59-1.42-10.53.39-19.91.47-28.14.25-.23,0-.34-.27-.19-.44,10.17-11.04,19.75-19.92,28.72-26.63,17.45-13.06,35.17-24.23,50.92-37.25,18.58-15.35,34.33-29.88,47.24-43.58,6.09-6.46,15.4-16.56,27.93-30.3,4.7-5.16,14.17-14.62,28.41-28.38,6.6-6.37,13.44-13.79,19.93-20.91Z" fill="#602ea3"/>
  <path d="M498.2,418.83c-.33-.03-.22.1.32.39,1.69,2.53,3.79,4.93,6.3,7.2,4.48,4.05,11.41,11.3,17.33,15.66,7.62,5.61,14.81,10.36,21.57,14.23.39.22.38.79,0,1-11.37,6.25-20.73,11.24-28.07,14.97-7.11,3.61-12.99,6.2-17.64,7.75-13.33,4.47-20.63,6.94-21.88,7.41-9.54,3.61-13.27,7.79-10.33,18.17-14.03-11.48-26.27-23.87-36.72-37.17-19.76-25.15-34.19-53.47-43.28-84.96.65-.71,1.14-1.43,1.47-2.17,1.01,3.36,2.08,6.7,3.2,10.02,1.8,5.35,3.31,9.63,4.52,12.83,1.83,4.83,3.59,9,5.28,12.51,5.69,11.88,10.69,21.57,16.24,30.09.16.26.49.37.78.26,29.09-10.95,54.5-20.44,80.92-28.19Z" fill="#3368b9"/>
  <path d="M118.1,432.96l.08,33.98c-2.33,5.26-5.06,8.76-10.94,9.61-19.8,2.86-35.56,5.2-55.06,6.04-8.53.37-17.19-.45-23.83-6.57-.23-.22-.39-.51-.45-.83l-.3-1.73-.05-71.68.32,6.79c0,.26.24.47.5.45,15.97-1.07,32.79-1.74,50.45-1.99,4.31-.06,16.63-.89,36.96-2.48.26-.02.48.18.49.45l.56,33.19c0,.14.11.25.24.26.14,0,.26-.1.28-.23l.75-5.26Z" fill="#2b5cb5"/>
  <path d="M501.07,418.92c1.84,1.95,3.72,3.91,5.63,5.88,27.87,28.78,61.82,45.43,101.83,49.95-25.95,17.43-41.75,26.34-76.46,46.52-4.49,2.61-10.55,6.45-18.18,11.54-.18.12-.17.4.02.5,8.54,4.55,17.41,8.38,26.6,11.49.75.87,1.17,1.79,1.27,2.76-27.83-9.64-53.16-23.62-75.99-41.95-2.94-10.38.79-14.56,10.33-18.17,1.25-.47,8.55-2.94,21.88-7.41,4.65-1.55,10.53-4.14,17.64-7.75,7.34-3.73,16.7-8.72,28.07-14.97.39-.21.4-.78,0-1-6.76-3.87-13.95-8.62-21.57-14.23-5.92-4.36-12.85-11.61-17.33-15.66-2.51-2.27-4.61-4.67-6.3-7.2l2.55-.3Z" fill="#2b5cb5"/>
  <path d="M540.51,544.8c-9.19-3.11-18.06-6.94-26.6-11.49-.19-.1-.2-.38-.02-.5,7.63-5.09,13.69-8.93,18.18-11.54,34.71-20.18,50.51-29.09,76.46-46.52,14.17,1.21,27.89.77,41.17-1.33,35.08-5.54,64.46-21.68,88.14-48.41-.03,2.06-.81,3.91-2.32,5.56-14.66,15.93-31.84,27.97-51.55,36.12-10.87,4.5-23.75,7.94-38.64,10.31-.31.05-.6.19-.82.41-11.13,10.82-25.93,23.75-40.05,32.61-7.08,4.44-16.42,8.67-23.85,12.86-11.67,6.57-22.4,14.46-32.19,23.68-.23.22-.56.31-.87.22l-7.04-1.98Z" fill="#353da9"/>
  <path d="M405.59,518.89l24.91,40.26c.16.26-.02.6-.33.6h-105.25c-.48,0-.94-.25-1.19-.67l-23.25-37.84c-.02-2.17-.49-4.06-1.4-5.68-3.32-5.86-9.27-15.91-17.85-30.14-.15-.25-.02-.57.26-.65,17.23-4.66,37.85-11.1,61.84-19.33,7.26-2.49,15.15-3.48,23.66-2.97.43.03.82.27,1.05.63l34.47,55.43c.15.23.37.41.63.5.77.27,1.59.22,2.45-.14Z" fill="#353da9"/>
  <path d="M118.18,466.94l.07,78.74c0,.98-.44,1.91-1.19,2.53l-89.06,73.41c-.16.14-.41.02-.41-.19v-147.97s.31,1.73.31,1.73c.06.32.22.61.45.83,6.64,6.12,15.3,6.94,23.83,6.57,19.5-.84,35.26-3.18,55.06-6.04,5.88-.85,8.61-4.35,10.94-9.61Z" fill="#1b45ac"/>
</svg>