<?xml version="1.0" encoding="UTF-8" standalone="no"?>
<svg xmlns="http://www.w3.org/2000/svg" version="1.2" baseProfile="tiny" viewBox="0.00 0.00 1024.00 1024.00" width="1024.00" height="1024.00">
<g stroke-width="2.00" fill="none" stroke-linecap="butt">
<path stroke="#7ccbeb" vector-effect="non-scaling-stroke" d="
  M 277.83 378.57
  C 278.37 378.17 278.32 377.34 277.73 377.01
  C 274.84 375.40 271.29 373.97 267.06 372.72
  C 206.01 354.66 143.76 381.49 112.97 436.72
  C 105.36 450.37 100.89 462.83 94.46 479.45
  C 88.31 495.36 80.34 510.45 69.34 523.31
  C 59.29 535.05 47.02 542.12 32.55 544.52
  C 30.33 544.89 28.86 545.34 28.14 545.89
  C 24.31 548.80 26.14 553.73 29.52 555.97
  C 31.66 557.38 33.74 558.24 35.75 558.55
  C 57.66 561.88 77.20 556.73 94.37 543.09
  C 110.73 530.08 122.72 511.76 131.62 492.87
  C 139.85 475.40 144.40 465.77 145.27 464.00
  C 156.59 440.95 170.89 420.20 191.49 404.99
  C 209.13 391.96 228.95 384.65 250.77 381.58
  C 257.53 380.63 266.17 379.77 276.70 378.99
  C 277.12 378.96 277.50 378.82 277.83 378.57"
/>
<path stroke="#98aee0" vector-effect="non-scaling-stroke" d="
  M 152.48 525.42
  C 142.03 546.61 127.68 564.60 107.42 576.91
  C 89.35 587.88 69.80 591.96 48.77 589.13
  C 44.48 588.56 42.31 588.27 42.28 588.26
  C 41.06 588.12 40.01 589.11 40.07 590.33
  C 40.14 591.77 40.79 592.98 42.01 593.96
  C 81.03 625.24 133.86 611.08 164.68 576.34
  C 180.47 558.54 191.19 537.18 200.28 515.67"
/>
<path stroke="#86b7e3" vector-effect="non-scaling-stroke" d="
  M 200.28 515.67
  C 207.90 498.54 215.70 481.90 226.96 467.46
  C 240.81 449.70 258.14 437.62 278.96 431.21
  C 290.33 427.71 299.67 425.33 307.00 424.08
  C 308.52 423.82 309.74 423.22 310.66 422.27
  C 311.38 421.52 311.32 420.24 310.52 419.31
  C 304.65 412.51 290.52 409.66 281.56 408.92
  C 249.46 406.28 217.59 422.66 196.43 446.26
  C 188.56 455.03 181.77 464.72 176.07 475.31
  C 172.70 481.59 169.52 487.54 166.66 494.12
  C 162.07 504.71 157.35 515.14 152.48 525.42"
/>
<path stroke="#276ecc" vector-effect="non-scaling-stroke" d="
  M 200.28 515.67
  C 185.10 521.07 169.54 523.27 152.48 525.42"
/>
<path stroke="#7c7c7c" vector-effect="non-scaling-stroke" d="
  M 740.43 509.00
  C 740.28 552.00 777.05 579.45 818.48 570.89
  C 848.73 564.63 866.81 539.16 866.92 508.93
  C 867.08 465.93 830.31 438.48 788.88 447.05
  C 758.62 453.30 740.54 478.77 740.43 509.00"
/>
<path stroke="#7c7c7c" vector-effect="non-scaling-stroke" d="
  M 676.35 570.54
  C 681.85 570.55 686.80 570.55 691.20 570.55
  C 691.48 570.55 691.73 570.37 691.83 570.11
  C 707.60 527.68 722.83 487.05 737.50 448.24
  C 737.62 447.93 737.66 447.72 737.63 447.59
  C 737.57 447.38 737.43 447.28 737.22 447.28
  C 732.86 447.31 724.26 447.29 711.42 447.24
  C 711.19 447.24 710.97 447.39 710.89 447.61
  C 706.62 459.52 695.22 491.11 676.69 542.39
  C 676.65 542.49 676.56 542.54 676.41 542.54
  C 676.26 542.54 676.17 542.49 676.14 542.39
  C 657.82 491.03 646.55 459.39 642.32 447.47
  C 642.24 447.25 642.03 447.10 641.79 447.10
  C 628.95 447.10 620.35 447.08 615.99 447.03
  C 615.78 447.03 615.64 447.13 615.58 447.34
  C 615.55 447.47 615.59 447.68 615.71 447.99
  C 630.22 486.86 645.28 527.55 660.88 570.05
  C 660.98 570.31 661.23 570.49 661.51 570.49
  C 665.91 570.51 670.86 570.53 676.35 570.54"
/>
<path stroke="#7c7c7c" vector-effect="non-scaling-stroke" d="
  M 473.34 525.60
  C 487.54 520.59 498.95 508.69 500.33 493.47
  C 500.84 487.88 500.63 483.15 499.70 479.26
  C 494.14 455.91 475.23 447.11 452.25 447.16
  C 448.17 447.17 432.34 447.17 404.77 447.18
  C 404.47 447.18 404.22 447.43 404.22 447.73
  L 404.22 570.18
  C 404.22 570.38 404.39 570.55 404.59 570.55
  L 428.72 570.55
  C 428.94 570.55 429.11 570.38 429.11 570.16
  L 429.11 529.46
  C 429.11 529.22 429.31 529.02 429.55 529.02
  L 445.98 529.02
  C 446.36 529.02 446.71 529.20 446.92 529.51
  L 474.86 570.07
  C 475.07 570.37 475.42 570.55 475.78 570.55
  L 503.44 570.55
  C 503.68 570.55 503.83 570.28 503.69 570.08
  L 473.24 525.90
  C 473.17 525.79 473.22 525.65 473.34 525.60"
/>
<path stroke="#7c7c7c" vector-effect="non-scaling-stroke" d="
  M 523.85 508.82
  C 523.86 548.32 523.87 568.75 523.88 570.11
  C 523.88 570.32 524.05 570.50 524.27 570.50
  L 602.90 570.50
  C 603.08 570.50 603.22 570.35 603.22 570.17
  L 603.22 548.60
  C 603.22 548.43 603.09 548.30 602.92 548.30
  L 549.57 548.30
  C 549.30 548.30 549.09 548.09 549.09 547.82
  L 549.09 520.05
  C 549.09 519.89 549.22 519.76 549.38 519.76
  L 597.38 519.76
  C 597.59 519.76 597.76 519.59 597.76 519.38
  C 597.79 517.98 597.81 514.45 597.81 508.80
  C 597.81 503.15 597.79 499.63 597.76 498.22
  C 597.75 498.01 597.58 497.84 597.37 497.84
  L 549.37 497.87
  C 549.21 497.87 549.08 497.74 549.08 497.58
  L 549.07 469.81
  C 549.07 469.54 549.29 469.33 549.55 469.33
  L 602.90 469.30
  C 603.07 469.30 603.20 469.17 603.20 469.00
  L 603.19 447.43
  C 603.19 447.25 603.05 447.10 602.87 447.10
  L 524.24 447.14
  C 524.03 447.14 523.85 447.31 523.85 447.53
  C 523.84 448.89 523.84 469.32 523.85 508.82"
/>
<path stroke="#7c7c7c" vector-effect="non-scaling-stroke" d="
  M 978.70 447.18
  L 950.47 447.18
  C 950.11 447.18 949.77 447.36 949.57 447.66
  L 923.59 486.16
  C 923.43 486.40 923.08 486.40 922.92 486.17
  L 896.44 447.74
  C 896.20 447.38 895.79 447.17 895.36 447.17
  C 883.13 447.19 868.53 447.02 868.25 447.35
  C 868.06 447.57 868.04 447.78 868.17 447.98
  C 882.46 468.73 896.07 488.31 909.00 506.74
  C 909.14 506.94 909.13 507.20 908.99 507.39
  L 864.71 569.99
  C 864.54 570.22 864.71 570.55 865.00 570.55
  L 892.85 570.55
  C 893.13 570.55 893.39 570.41 893.55 570.18
  L 923.14 528.37
  C 923.26 528.19 923.53 528.19 923.65 528.37
  L 951.54 570.11
  C 951.72 570.38 952.02 570.54 952.34 570.54
  L 980.81 570.54
  C 981.08 570.54 981.23 570.24 981.08 570.02
  L 937.99 507.48
  C 937.67 507.02 937.68 506.42 938.00 505.97
  L 979.08 447.91
  C 979.29 447.60 979.08 447.18 978.70 447.18"
/>
<path stroke="#cea4dd" vector-effect="non-scaling-stroke" d="
  M 83.02 643.74
  C 84.39 644.89 86.12 645.93 88.19 646.84
  C 101.25 652.63 114.93 656.14 128.68 656.33
  C 150.05 656.62 169.63 652.26 187.40 643.26
  C 206.68 633.49 222.66 619.58 235.34 601.53
  C 243.08 590.51 249.23 579.34 253.78 568.03
  C 266.66 535.98 278.62 501.68 313.55 487.21
  C 321.35 483.98 326.10 477.90 326.75 469.26
  C 327.00 465.88 326.64 462.98 325.68 460.57
  C 323.62 455.43 318.23 455.43 313.28 455.87
  C 294.40 457.54 275.70 467.77 262.16 480.93
  C 241.26 501.25 232.10 526.23 219.21 555.25
  C 209.00 578.23 193.80 600.29 174.44 615.52
  C 154.39 631.30 131.49 640.17 105.72 642.12
  C 97.84 642.72 91.15 642.23 83.59 642.20
  C 82.77 642.20 82.40 643.21 83.02 643.74"
/>
<path stroke="#f3be97" vector-effect="non-scaling-stroke" d="
  M 156.21 675.96
  C 156.22 675.97 156.30 676.04 156.43 676.15
  C 156.52 676.23 156.62 676.29 156.73 676.32
  C 165.10 678.89 173.17 680.14 180.94 680.08
  C 217.84 679.81 248.37 666.32 272.53 639.63
  C 284.60 626.29 293.52 612.02 299.28 596.81
  C 303.19 586.48 305.71 579.22 306.82 575.02
  C 311.51 557.33 315.10 541.28 317.58 526.89
  C 317.97 524.60 320.26 517.90 320.19 513.54
  C 320.17 512.55 319.38 511.73 318.39 511.69
  C 314.53 511.50 309.09 517.63 306.51 520.52
  C 296.52 531.70 288.81 546.78 283.70 560.70
  C 280.53 569.35 277.75 576.57 275.35 582.36
  C 263.66 610.61 243.19 638.49 217.21 654.88
  C 198.98 666.39 178.32 672.29 156.57 675.11
  C 156.16 675.16 155.96 675.63 156.21 675.96"
/>
<path stroke="#7c7c7c" vector-effect="non-scaling-stroke" d="
  M 765.40 509.82
  C 765.91 532.03 781.28 550.55 804.52 550.01
  C 827.76 549.47 842.25 530.26 841.74 508.05
  C 841.22 485.84 825.85 467.31 802.61 467.85
  C 779.37 468.39 764.88 487.61 765.40 509.82"
/>
<path stroke="#7c7c7c" vector-effect="non-scaling-stroke" d="
  M 429.12 469.51
  L 429.12 506.87
  C 429.12 507.03 429.25 507.16 429.41 507.16
  L 455.67 507.16
  C 466.38 507.16 475.06 499.18 475.06 489.34
  L 475.06 487.04
  C 475.06 477.20 466.38 469.22 455.67 469.22
  L 429.41 469.22
  C 429.25 469.22 429.12 469.35 429.12 469.51"
/>
</g>
<path fill="#f7f7f7" d="
  M 1024.00 0.00
  L 1024.00 1024.00
  L 0.00 1024.00
  L 0.00 0.00
  L 1024.00 0.00
  Z
  M 277.83 378.57
  C 278.37 378.17 278.32 377.34 277.73 377.01
  C 274.84 375.40 271.29 373.97 267.06 372.72
  C 206.01 354.66 143.76 381.49 112.97 436.72
  C 105.36 450.37 100.89 462.83 94.46 479.45
  C 88.31 495.36 80.34 510.45 69.34 523.31
  C 59.29 535.05 47.02 542.12 32.55 544.52
  C 30.33 544.89 28.86 545.34 28.14 545.89
  C 24.31 548.80 26.14 553.73 29.52 555.97
  C 31.66 557.38 33.74 558.24 35.75 558.55
  C 57.66 561.88 77.20 556.73 94.37 543.09
  C 110.73 530.08 122.72 511.76 131.62 492.87
  C 139.85 475.40 144.40 465.77 145.27 464.00
  C 156.59 440.95 170.89 420.20 191.49 404.99
  C 209.13 391.96 228.95 384.65 250.77 381.58
  C 257.53 380.63 266.17 379.77 276.70 378.99
  C 277.12 378.96 277.50 378.82 277.83 378.57
  Z
  M 152.48 525.42
  C 142.03 546.61 127.68 564.60 107.42 576.91
  C 89.35 587.88 69.80 591.96 48.77 589.13
  C 44.48 588.56 42.31 588.27 42.28 588.26
  C 41.06 588.12 40.01 589.11 40.07 590.33
  C 40.14 591.77 40.79 592.98 42.01 593.96
  C 81.03 625.24 133.86 611.08 164.68 576.34
  C 180.47 558.54 191.19 537.18 200.28 515.67
  C 207.90 498.54 215.70 481.90 226.96 467.46
  C 240.81 449.70 258.14 437.62 278.96 431.21
  C 290.33 427.71 299.67 425.33 307.00 424.08
  C 308.52 423.82 309.74 423.22 310.66 422.27
  C 311.38 421.52 311.32 420.24 310.52 419.31
  C 304.65 412.51 290.52 409.66 281.56 408.92
  C 249.46 406.28 217.59 422.66 196.43 446.26
  C 188.56 455.03 181.77 464.72 176.07 475.31
  C 172.70 481.59 169.52 487.54 166.66 494.12
  C 162.07 504.71 157.35 515.14 152.48 525.42
  Z
  M 740.43 509.00
  C 740.28 552.00 777.05 579.45 818.48 570.89
  C 848.73 564.63 866.81 539.16 866.92 508.93
  C 867.08 465.93 830.31 438.48 788.88 447.05
  C 758.62 453.30 740.54 478.77 740.43 509.00
  Z
  M 676.35 570.54
  C 681.85 570.55 686.80 570.55 691.20 570.55
  C 691.48 570.55 691.73 570.37 691.83 570.11
  C 707.60 527.68 722.83 487.05 737.50 448.24
  C 737.62 447.93 737.66 447.72 737.63 447.59
  C 737.57 447.38 737.43 447.28 737.22 447.28
  C 732.86 447.31 724.26 447.29 711.42 447.24
  C 711.19 447.24 710.97 447.39 710.89 447.61
  C 706.62 459.52 695.22 491.11 676.69 542.39
  C 676.65 542.49 676.56 542.54 676.41 542.54
  C 676.26 542.54 676.17 542.49 676.14 542.39
  C 657.82 491.03 646.55 459.39 642.32 447.47
  C 642.24 447.25 642.03 447.10 641.79 447.10
  C 628.95 447.10 620.35 447.08 615.99 447.03
  C 615.78 447.03 615.64 447.13 615.58 447.34
  C 615.55 447.47 615.59 447.68 615.71 447.99
  C 630.22 486.86 645.28 527.55 660.88 570.05
  C 660.98 570.31 661.23 570.49 661.51 570.49
  C 665.91 570.51 670.86 570.53 676.35 570.54
  Z
  M 473.34 525.60
  C 487.54 520.59 498.95 508.69 500.33 493.47
  C 500.84 487.88 500.63 483.15 499.70 479.26
  C 494.14 455.91 475.23 447.11 452.25 447.16
  C 448.17 447.17 432.34 447.17 404.77 447.18
  C 404.47 447.18 404.22 447.43 404.22 447.73
  L 404.22 570.18
  C 404.22 570.38 404.39 570.55 404.59 570.55
  L 428.72 570.55
  C 428.94 570.55 429.11 570.38 429.11 570.16
  L 429.11 529.46
  C 429.11 529.22 429.31 529.02 429.55 529.02
  L 445.98 529.02
  C 446.36 529.02 446.71 529.20 446.92 529.51
  L 474.86 570.07
  C 475.07 570.37 475.42 570.55 475.78 570.55
  L 503.44 570.55
  C 503.68 570.55 503.83 570.28 503.69 570.08
  L 473.24 525.90
  C 473.17 525.79 473.22 525.65 473.34 525.60
  Z
  M 523.85 508.82
  C 523.86 548.32 523.87 568.75 523.88 570.11
  C 523.88 570.32 524.05 570.50 524.27 570.50
  L 602.90 570.50
  C 603.08 570.50 603.22 570.35 603.22 570.17
  L 603.22 548.60
  C 603.22 548.43 603.09 548.30 602.92 548.30
  L 549.57 548.30
  C 549.30 548.30 549.09 548.09 549.09 547.82
  L 549.09 520.05
  C 549.09 519.89 549.22 519.76 549.38 519.76
  L 597.38 519.76
  C 597.59 519.76 597.76 519.59 597.76 519.38
  C 597.79 517.98 597.81 514.45 597.81 508.80
  C 597.81 503.15 597.79 499.63 597.76 498.22
  C 597.75 498.01 597.58 497.84 597.37 497.84
  L 549.37 497.87
  C 549.21 497.87 549.08 497.74 549.08 497.58
  L 549.07 469.81
  C 549.07 469.54 549.29 469.33 549.55 469.33
  L 602.90 469.30
  C 603.07 469.30 603.20 469.17 603.20 469.00
  L 603.19 447.43
  C 603.19 447.25 603.05 447.10 602.87 447.10
  L 524.24 447.14
  C 524.03 447.14 523.85 447.31 523.85 447.53
  C 523.84 448.89 523.84 469.32 523.85 508.82
  Z
  M 978.70 447.18
  L 950.47 447.18
  C 950.11 447.18 949.77 447.36 949.57 447.66
  L 923.59 486.16
  C 923.43 486.40 923.08 486.40 922.92 486.17
  L 896.44 447.74
  C 896.20 447.38 895.79 447.17 895.36 447.17
  C 883.13 447.19 868.53 447.02 868.25 447.35
  C 868.06 447.57 868.04 447.78 868.17 447.98
  C 882.46 468.73 896.07 488.31 909.00 506.74
  C 909.14 506.94 909.13 507.20 908.99 507.39
  L 864.71 569.99
  C 864.54 570.22 864.71 570.55 865.00 570.55
  L 892.85 570.55
  C 893.13 570.55 893.39 570.41 893.55 570.18
  L 923.14 528.37
  C 923.26 528.19 923.53 528.19 923.65 528.37
  L 951.54 570.11
  C 951.72 570.38 952.02 570.54 952.34 570.54
  L 980.81 570.54
  C 981.08 570.54 981.23 570.24 981.08 570.02
  L 937.99 507.48
  C 937.67 507.02 937.68 506.42 938.00 505.97
  L 979.08 447.91
  C 979.29 447.60 979.08 447.18 978.70 447.18
  Z
  M 83.02 643.74
  C 84.39 644.89 86.12 645.93 88.19 646.84
  C 101.25 652.63 114.93 656.14 128.68 656.33
  C 150.05 656.62 169.63 652.26 187.40 643.26
  C 206.68 633.49 222.66 619.58 235.34 601.53
  C 243.08 590.51 249.23 579.34 253.78 568.03
  C 266.66 535.98 278.62 501.68 313.55 487.21
  C 321.35 483.98 326.10 477.90 326.75 469.26
  C 327.00 465.88 326.64 462.98 325.68 460.57
  C 323.62 455.43 318.23 455.43 313.28 455.87
  C 294.40 457.54 275.70 467.77 262.16 480.93
  C 241.26 501.25 232.10 526.23 219.21 555.25
  C 209.00 578.23 193.80 600.29 174.44 615.52
  C 154.39 631.30 131.49 640.17 105.72 642.12
  C 97.84 642.72 91.15 642.23 83.59 642.20
  C 82.77 642.20 82.40 643.21 83.02 643.74
  Z
  M 156.21 675.96
  C 156.22 675.97 156.30 676.04 156.43 676.15
  C 156.52 676.23 156.62 676.29 156.73 676.32
  C 165.10 678.89 173.17 680.14 180.94 680.08
  C 217.84 679.81 248.37 666.32 272.53 639.63
  C 284.60 626.29 293.52 612.02 299.28 596.81
  C 303.19 586.48 305.71 579.22 306.82 575.02
  C 311.51 557.33 315.10 541.28 317.58 526.89
  C 317.97 524.60 320.26 517.90 320.19 513.54
  C 320.17 512.55 319.38 511.73 318.39 511.69
  C 314.53 511.50 309.09 517.63 306.51 520.52
  C 296.52 531.70 288.81 546.78 283.70 560.70
  C 280.53 569.35 277.75 576.57 275.35 582.36
  C 263.66 610.61 243.19 638.49 217.21 654.88
  C 198.98 666.39 178.32 672.29 156.57 675.11
  C 156.16 675.16 155.96 675.63 156.21 675.96
  Z"
/>
<path fill="#009ede" d="
  M 277.83 378.57
  C 277.50 378.82 277.12 378.96 276.70 378.99
  C 266.17 379.77 257.53 380.63 250.77 381.58
  C 228.95 384.65 209.13 391.96 191.49 404.99
  C 170.89 420.20 156.59 440.95 145.27 464.00
  C 144.40 465.77 139.85 475.40 131.62 492.87
  C 122.72 511.76 110.73 530.08 94.37 543.09
  C 77.20 556.73 57.66 561.88 35.75 558.55
  C 33.74 558.24 31.66 557.38 29.52 555.97
  C 26.14 553.73 24.31 548.80 28.14 545.89
  C 28.86 545.34 30.33 544.89 32.55 544.52
  C 47.02 542.12 59.29 535.05 69.34 523.31
  C 80.34 510.45 88.31 495.36 94.46 479.45
  C 100.89 462.83 105.36 450.37 112.97 436.72
  C 143.76 381.49 206.01 354.66 267.06 372.72
  C 271.29 373.97 274.84 375.40 277.73 377.01
  C 278.32 377.34 278.37 378.17 277.83 378.57
  Z"
/>
<path fill="#1477cf" d="
  M 200.28 515.67
  C 185.10 521.07 169.54 523.27 152.48 525.42
  C 157.35 515.14 162.07 504.71 166.66 494.12
  C 169.52 487.54 172.70 481.59 176.07 475.31
  C 181.77 464.72 188.56 455.03 196.43 446.26
  C 217.59 422.66 249.46 406.28 281.56 408.92
  C 290.52 409.66 304.65 412.51 310.52 419.31
  C 311.32 420.24 311.38 421.52 310.66 422.27
  C 309.74 423.22 308.52 423.82 307.00 424.08
  C 299.67 425.33 290.33 427.71 278.96 431.21
  C 258.14 437.62 240.81 449.70 226.96 467.46
  C 215.70 481.90 207.90 498.54 200.28 515.67
  Z"
/>
<path fill="#000000" d="
  M 740.43 509.00
  C 740.54 478.77 758.62 453.30 788.88 447.05
  C 830.31 438.48 867.08 465.93 866.92 508.93
  C 866.81 539.16 848.73 564.63 818.48 570.89
  C 777.05 579.45 740.28 552.00 740.43 509.00
  Z
  M 765.40 509.82
  C 765.91 532.03 781.28 550.55 804.52 550.01
  C 827.76 549.47 842.25 530.26 841.74 508.05
  C 841.22 485.84 825.85 467.31 802.61 467.85
  C 779.37 468.39 764.88 487.61 765.40 509.82
  Z"
/>
<path fill="#000000" d="
  M 676.41 542.54
  C 676.56 542.54 676.65 542.49 676.69 542.39
  C 695.22 491.11 706.62 459.52 710.89 447.61
  C 710.97 447.39 711.19 447.24 711.42 447.24
  C 724.26 447.29 732.86 447.31 737.22 447.28
  C 737.43 447.28 737.57 447.38 737.63 447.59
  C 737.66 447.72 737.62 447.93 737.50 448.24
  C 722.83 487.05 707.60 527.68 691.83 570.11
  C 691.73 570.37 691.48 570.55 691.20 570.55
  C 686.80 570.55 681.85 570.55 676.35 570.54
  C 670.86 570.53 665.91 570.51 661.51 570.49
  C 661.23 570.49 660.98 570.31 660.88 570.05
  C 645.28 527.55 630.22 486.86 615.71 447.99
  C 615.59 447.68 615.55 447.47 615.58 447.34
  C 615.64 447.13 615.78 447.03 615.99 447.03
  C 620.35 447.08 628.95 447.10 641.79 447.10
  C 642.03 447.10 642.24 447.25 642.32 447.47
  C 646.55 459.39 657.82 491.03 676.14 542.39
  C 676.17 542.49 676.26 542.54 676.41 542.54
  Z"
/>
<path fill="#000000" d="
  M 473.34 525.60
  C 473.22 525.65 473.17 525.79 473.24 525.90
  L 503.69 570.08
  C 503.83 570.28 503.68 570.55 503.44 570.55
  L 475.78 570.55
  C 475.42 570.55 475.07 570.37 474.86 570.07
  L 446.92 529.51
  C 446.71 529.20 446.36 529.02 445.98 529.02
  L 429.55 529.02
  C 429.31 529.02 429.11 529.22 429.11 529.46
  L 429.11 570.16
  C 429.11 570.38 428.94 570.55 428.72 570.55
  L 404.59 570.55
  C 404.39 570.55 404.22 570.38 404.22 570.18
  L 404.22 447.73
  C 404.22 447.43 404.47 447.18 404.77 447.18
  C 432.34 447.17 448.17 447.17 452.25 447.16
  C 475.23 447.11 494.14 455.91 499.70 479.26
  C 500.63 483.15 500.84 487.88 500.33 493.47
  C 498.95 508.69 487.54 520.59 473.34 525.60
  Z
  M 429.12 469.51
  L 429.12 506.87
  C 429.12 507.03 429.25 507.16 429.41 507.16
  L 455.67 507.16
  C 466.38 507.16 475.06 499.18 475.06 489.34
  L 475.06 487.04
  C 475.06 477.20 466.38 469.22 455.67 469.22
  L 429.41 469.22
  C 429.25 469.22 429.12 469.35 429.12 469.51
  Z"
/>
<path fill="#000000" d="
  M 597.81 508.80
  C 597.81 514.45 597.79 517.98 597.76 519.38
  C 597.76 519.59 597.59 519.76 597.38 519.76
  L 549.38 519.76
  C 549.22 519.76 549.09 519.89 549.09 520.05
  L 549.09 547.82
  C 549.09 548.09 549.30 548.30 549.57 548.30
  L 602.92 548.30
  C 603.09 548.30 603.22 548.43 603.22 548.60
  L 603.22 570.17
  C 603.22 570.35 603.08 570.50 602.90 570.50
  L 524.27 570.50
  C 524.05 570.50 523.88 570.32 523.88 570.11
  C 523.87 568.75 523.86 548.32 523.85 508.82
  C 523.84 469.32 523.84 448.89 523.85 447.53
  C 523.85 447.31 524.03 447.14 524.24 447.14
  L 602.87 447.10
  C 603.05 447.10 603.19 447.25 603.19 447.43
  L 603.20 469.00
  C 603.20 469.17 603.07 469.30 602.90 469.30
  L 549.55 469.33
  C 549.29 469.33 549.07 469.54 549.07 469.81
  L 549.08 497.58
  C 549.08 497.74 549.21 497.87 549.37 497.87
  L 597.37 497.84
  C 597.58 497.84 597.75 498.01 597.76 498.22
  C 597.79 499.63 597.81 503.15 597.81 508.80
  Z"
/>
<path fill="#000000" d="
  M 978.70 447.18
  C 979.08 447.18 979.29 447.60 979.08 447.91
  L 938.00 505.97
  C 937.68 506.42 937.67 507.02 937.99 507.48
  L 981.08 570.02
  C 981.23 570.24 981.08 570.54 980.81 570.54
  L 952.34 570.54
  C 952.02 570.54 951.72 570.38 951.54 570.11
  L 923.65 528.37
  C 923.53 528.19 923.26 528.19 923.14 528.37
  L 893.55 570.18
  C 893.39 570.41 893.13 570.55 892.85 570.55
  L 865.00 570.55
  C 864.71 570.55 864.54 570.22 864.71 569.99
  L 908.99 507.39
  C 909.13 507.20 909.14 506.94 909.00 506.74
  C 896.07 488.31 882.46 468.73 868.17 447.98
  C 868.04 447.78 868.06 447.57 868.25 447.35
  C 868.53 447.02 883.13 447.19 895.36 447.17
  C 895.79 447.17 896.20 447.38 896.44 447.74
  L 922.92 486.17
  C 923.08 486.40 923.43 486.40 923.59 486.16
  L 949.57 447.66
  C 949.77 447.36 950.11 447.18 950.47 447.18
  L 978.70 447.18
  Z"
/>
<path fill="#a550c3" d="
  M 83.02 643.74
  C 82.40 643.21 82.77 642.20 83.59 642.20
  C 91.15 642.23 97.84 642.72 105.72 642.12
  C 131.49 640.17 154.39 631.30 174.44 615.52
  C 193.80 600.29 209.00 578.23 219.21 555.25
  C 232.10 526.23 241.26 501.25 262.16 480.93
  C 275.70 467.77 294.40 457.54 313.28 455.87
  C 318.23 455.43 323.62 455.43 325.68 460.57
  C 326.64 462.98 327.00 465.88 326.75 469.26
  C 326.10 477.90 321.35 483.98 313.55 487.21
  C 278.62 501.68 266.66 535.98 253.78 568.03
  C 249.23 579.34 243.08 590.51 235.34 601.53
  C 222.66 619.58 206.68 633.49 187.40 643.26
  C 169.63 652.26 150.05 656.62 128.68 656.33
  C 114.93 656.14 101.25 652.63 88.19 646.84
  C 86.12 645.93 84.39 644.89 83.02 643.74
  Z"
/>
<path fill="#f7f7f7" d="
  M 802.61 467.85
  C 825.85 467.31 841.22 485.84 841.74 508.05
  C 842.25 530.26 827.76 549.47 804.52 550.01
  C 781.28 550.55 765.91 532.03 765.40 509.82
  C 764.88 487.61 779.37 468.39 802.61 467.85
  Z"
/>
<path fill="#f7f7f7" d="
  M 429.12 469.51
  C 429.12 469.35 429.25 469.22 429.41 469.22
  L 455.67 469.22
  C 466.38 469.22 475.06 477.20 475.06 487.04
  L 475.06 489.34
  C 475.06 499.18 466.38 507.16 455.67 507.16
  L 429.41 507.16
  C 429.25 507.16 429.12 507.03 429.12 506.87
  L 429.12 469.51
  Z"
/>
<path fill="#ef8437" d="
  M 156.21 675.96
  C 155.96 675.63 156.16 675.16 156.57 675.11
  C 178.32 672.29 198.98 666.39 217.21 654.88
  C 243.19 638.49 263.66 610.61 275.35 582.36
  C 277.75 576.57 280.53 569.35 283.70 560.70
  C 288.81 546.78 296.52 531.70 306.51 520.52
  C 309.09 517.63 314.53 511.50 318.39 511.69
  C 319.38 511.73 320.17 512.55 320.19 513.54
  C 320.26 517.90 317.97 524.60 317.58 526.89
  C 315.10 541.28 311.51 557.33 306.82 575.02
  C 305.71 579.22 303.19 586.48 299.28 596.81
  C 293.52 612.02 284.60 626.29 272.53 639.63
  C 248.37 666.32 217.84 679.81 180.94 680.08
  C 173.17 680.14 165.10 678.89 156.73 676.32
  C 156.62 676.29 156.52 676.23 156.43 676.15
  C 156.30 676.04 156.22 675.97 156.21 675.96
  Z"
/>
<path fill="#3964c8" d="
  M 200.28 515.67
  C 191.19 537.18 180.47 558.54 164.68 576.34
  C 133.86 611.08 81.03 625.24 42.01 593.96
  C 40.79 592.98 40.14 591.77 40.07 590.33
  C 40.01 589.11 41.06 588.12 42.28 588.26
  C 42.31 588.27 44.48 588.56 48.77 589.13
  C 69.80 591.96 89.35 587.88 107.42 576.91
  C 127.68 564.60 142.03 546.61 152.48 525.42
  C 169.54 523.27 185.10 521.07 200.28 515.67
  Z"
/>
</svg>
