<?xml version="1.0" encoding="UTF-8"?>
<svg id="Layer_1" xmlns="http://www.w3.org/2000/svg" baseProfile="tiny" version="1.2" viewBox="0 0 350 350">
  <!-- Generator: Adobe Illustrator 29.8.1, SVG Export Plug-In . SVG Version: 2.1.1 Build 2)  -->
  <path d="M268.41,39.98c.59.68.14,1.74-.76,1.8-10.35.67-20.03,1.75-29.06,3.23-22.63,3.71-42.26,13.16-58.88,28.35-14.57,13.31-25.8,30.52-34.03,48-9.92,21.07-14.75,32.79-24.57,47.64-17.31,26.19-44.88,44.75-77.49,37.64-3.67-.81-8.69-5.02-6.7-9.32.75-1.62,2.06-2.57,3.91-2.84,13.91-2.09,25.55-8.48,34.9-19.18,14.03-16.06,22.01-35.46,29.44-55.49,2.91-7.84,6.5-15.73,10.75-23.67,15.28-28.55,41.39-50.94,72.58-60.18,20.87-6.18,42.33-6.7,64.39-1.55,5.81,1.35,10.7,3.03,14.69,5.04.43.21.71.39.83.53h0Z" fill="#0094da"/>
  <path d="M88.84,285.54c-.47-.34-.36-1.07.19-1.26.68-.24,3.05-.28,7.11-.13,26.29.99,50.91-6.01,71.82-20.77,21.76-15.35,37.13-38.02,47.71-62.15,10.6-24.19,17.29-41.25,30.75-57.59,12.23-14.85,27.19-24.64,44.87-29.38,5.41-1.45,10.33-2.07,14.74-1.85,5.98.3,7.72,6.11,7.48,11.07-.3,6.42-2.53,11.37-6.68,14.85-.97.81-3.96,2.4-8.97,4.75-16.12,7.57-27.57,20.78-35.59,36.11-6.91,13.22-11.06,25.12-16.65,38.13-11.54,26.9-29.1,49.78-53.96,64.29-17.73,10.35-36.89,15.53-57.46,15.53-15.29,0-29.38-3.32-42.91-9.88-.27-.13-1.09-.71-2.45-1.72h0Z" fill="#9c47bb"/>
  <path d="M156.45,315.2c-.3-.37-.03-.91.44-.9,13.36.33,29.71-4.55,49.06-14.66,11.71-6.12,24.08-16.34,33.2-27.06,13.34-15.68,23.5-33.19,30.49-52.54,5.63-15.59,10.79-28.39,18.56-39.67,2.19-3.17,13.75-18.47,18.2-16.27.87.43,1.33,1.42,1.13,2.42-3.27,15.95-6.09,29.37-8.44,40.26-2.33,10.81-5.84,22.31-10.52,34.51-6.65,17.31-16.74,32.64-30.28,45.99-16.35,16.11-36.03,26.15-59.03,30.11-13.72,2.36-29.51,2.7-42.34-1.79-.12-.05-.23-.12-.32-.22l-.15-.18h0Z" fill="#ed7a30"/>
  <path d="M298.43,78.68c-22.26-17.04-56.6-9.59-79.21,3.81-38.22,21.65-51.15,63.14-69.57,100.26-2.95,5.24-6.24,10.31-9.88,15.22-13.33,17.99-32.86,32.19-54.71,36.45-10.52,2.05-21.25,2.08-32.2.08-4.04-.74-4.24,3.06-2.03,4.86,19.57,15.97,44.78,20.19,68.77,12.94,39.47-11.93,60.72-45.44,75.95-81.39,18.62-48.9,47.44-80.21,100.88-88.02,2.2-.39,3.54-2.34,2-4.21Z" fill="#305ac1"/>
</svg>